<svg width="12" height="8" viewBox="0 0 12 8" fill="none" xmlns="http://www.w3.org/2000/svg">
<path d="M6.0083 7.74219C5.72607 7.74219 5.47152 7.62874 5.24463 7.40186L0.322266 2.42969C0.139648 2.24154 0.0483398 2.01742 0.0483398 1.75732C0.0483398 1.48617 0.139648 1.25928 0.322266 1.07666C0.510417 0.888509 0.740072 0.794434 1.01123 0.794434C1.27132 0.794434 1.50374 0.894043 1.7085 1.09326L6.32373 5.7749H5.69287L10.2998 1.09326C10.5046 0.894043 10.737 0.794434 10.9971 0.794434C11.2627 0.794434 11.4868 0.888509 11.6694 1.07666C11.8576 1.25928 11.9517 1.48617 11.9517 1.75732C11.9517 2.02295 11.8604 2.24707 11.6777 2.42969L6.76367 7.40186C6.54785 7.62321 6.29606 7.73665 6.0083 7.74219Z" fill="white" fill-opacity="0.96"/>
</svg>
