<svg width="44" height="44" viewBox="0 0 44 44" fill="none" xmlns="http://www.w3.org/2000/svg">
<g clip-path="url(#clip0_10_2559)">
<rect width="44" height="44" rx="22" fill="white" fill-opacity="0.06" style="mix-blend-mode:lighten"/>
<rect width="44" height="44" rx="22" fill="#5E5E5E" fill-opacity="0.18" style="mix-blend-mode:color-dodge"/>
<path d="M16.0625 22.3018C16.0625 22.141 16.0903 21.9925 16.146 21.8564C16.2078 21.7204 16.3006 21.5905 16.4243 21.4668L23.6514 14.3975C23.8617 14.1934 24.1152 14.0913 24.4121 14.0913C24.6162 14.0913 24.7987 14.1408 24.9595 14.2397C25.1265 14.3325 25.2594 14.4593 25.3584 14.6201C25.4574 14.7809 25.5068 14.9634 25.5068 15.1675C25.5068 15.4582 25.3924 15.7179 25.1636 15.9468L18.6509 22.3018L25.1636 28.6567C25.3924 28.8856 25.5068 29.1484 25.5068 29.4453C25.5068 29.6432 25.4574 29.8226 25.3584 29.9834C25.2594 30.1504 25.1265 30.2803 24.9595 30.373C24.7987 30.472 24.6162 30.5215 24.4121 30.5215C24.1152 30.5215 23.8617 30.4163 23.6514 30.2061L16.4243 23.1367C16.3006 23.013 16.2078 22.8831 16.146 22.7471C16.0903 22.611 16.0625 22.4626 16.0625 22.3018Z" fill="white" fill-opacity="0.96"/>
</g>
<defs>
<clipPath id="clip0_10_2559">
<rect width="44" height="44" rx="22" fill="white"/>
</clipPath>
</defs>
</svg>
