<svg width="18" height="16" viewBox="0 0 18 16" fill="none" xmlns="http://www.w3.org/2000/svg">
<path d="M3.28906 15.7681C2.39258 15.7681 1.71468 15.5384 1.25537 15.0791C0.796061 14.6253 0.566406 13.9557 0.566406 13.0703L0.566406 2.96826C0.566406 2.07731 0.796061 1.40495 1.25537 0.951172C1.71468 0.497396 2.39258 0.270508 3.28906 0.270508L14.7109 0.270508C15.613 0.270508 16.2909 0.497396 16.7446 0.951172C17.2039 1.40495 17.4336 2.07731 17.4336 2.96826L17.4336 13.0703C17.4336 13.9557 17.2039 14.6253 16.7446 15.0791C16.2909 15.5384 15.613 15.7681 14.7109 15.7681L3.28906 15.7681ZM3.27246 14.1328L14.7192 14.1328C15.0679 14.1328 15.3335 14.0443 15.5161 13.8672C15.7043 13.6846 15.7983 13.4134 15.7983 13.0537L15.7983 5.38379C15.7983 5.02409 15.7043 4.75293 15.5161 4.57031C15.3335 4.3877 15.0679 4.29639 14.7192 4.29639L3.27246 4.29639C2.92383 4.29639 2.6582 4.3877 2.47559 4.57031C2.29297 4.75293 2.20166 5.02409 2.20166 5.38379L2.20166 13.0537C2.20166 13.4134 2.29297 13.6846 2.47559 13.8672C2.6582 14.0443 2.92383 14.1328 3.27246 14.1328ZM7.40625 7.18506C7.25684 7.18506 7.15169 7.15739 7.09082 7.10205C7.03548 7.04118 7.00781 6.9388 7.00781 6.79492L7.00781 6.30518C7.00781 6.15576 7.03548 6.05615 7.09082 6.00635C7.15169 5.95101 7.25684 5.92334 7.40625 5.92334L7.896 5.92334C8.03988 5.92334 8.14225 5.95101 8.20312 6.00635C8.264 6.05615 8.29443 6.15576 8.29443 6.30518L8.29443 6.79492C8.29443 6.9388 8.264 7.04118 8.20312 7.10205C8.14225 7.15739 8.03988 7.18506 7.896 7.18506L7.40625 7.18506ZM10.1123 7.18506C9.96842 7.18506 9.86605 7.15739 9.80518 7.10205C9.74984 7.04118 9.72217 6.9388 9.72217 6.79492L9.72217 6.30518C9.72217 6.15576 9.74984 6.05615 9.80518 6.00635C9.86605 5.95101 9.96842 5.92334 10.1123 5.92334L10.6021 5.92334C10.757 5.92334 10.8621 5.95101 10.9175 6.00635C10.9728 6.05615 11.0005 6.15576 11.0005 6.30518L11.0005 6.79492C11.0005 6.9388 10.9728 7.04118 10.9175 7.10205C10.8621 7.15739 10.757 7.18506 10.6021 7.18506L10.1123 7.18506ZM12.835 7.18506C12.6855 7.18506 12.5804 7.15739 12.5195 7.10205C12.4642 7.04118 12.4365 6.9388 12.4365 6.79492L12.4365 6.30518C12.4365 6.15576 12.4642 6.05615 12.5195 6.00635C12.5804 5.95101 12.6855 5.92334 12.835 5.92334L13.3164 5.92334C13.4714 5.92334 13.5765 5.95101 13.6318 6.00635C13.6872 6.05615 13.7148 6.15576 13.7148 6.30518L13.7148 6.79492C13.7148 6.9388 13.6872 7.04118 13.6318 7.10205C13.5765 7.15739 13.4714 7.18506 13.3164 7.18506L12.835 7.18506ZM4.69189 9.84961C4.54248 9.84961 4.43734 9.82194 4.37646 9.7666C4.32113 9.71126 4.29346 9.61165 4.29346 9.46777L4.29346 8.97803C4.29346 8.82861 4.32113 8.72624 4.37646 8.6709C4.43734 8.61556 4.54248 8.58789 4.69189 8.58789L5.18164 8.58789C5.32552 8.58789 5.42513 8.61556 5.48047 8.6709C5.54134 8.72624 5.57178 8.82861 5.57178 8.97803L5.57178 9.46777C5.57178 9.61165 5.54134 9.71126 5.48047 9.7666C5.42513 9.82194 5.32552 9.84961 5.18164 9.84961L4.69189 9.84961ZM7.40625 9.84961C7.25684 9.84961 7.15169 9.82194 7.09082 9.7666C7.03548 9.71126 7.00781 9.61165 7.00781 9.46777L7.00781 8.97803C7.00781 8.82861 7.03548 8.72624 7.09082 8.6709C7.15169 8.61556 7.25684 8.58789 7.40625 8.58789L7.896 8.58789C8.03988 8.58789 8.14225 8.61556 8.20312 8.6709C8.264 8.72624 8.29443 8.82861 8.29443 8.97803L8.29443 9.46777C8.29443 9.61165 8.264 9.71126 8.20312 9.7666C8.14225 9.82194 8.03988 9.84961 7.896 9.84961L7.40625 9.84961ZM10.1123 9.84961C9.96842 9.84961 9.86605 9.82194 9.80518 9.7666C9.74984 9.71126 9.72217 9.61165 9.72217 9.46777L9.72217 8.97803C9.72217 8.82861 9.74984 8.72624 9.80518 8.6709C9.86605 8.61556 9.96842 8.58789 10.1123 8.58789L10.6021 8.58789C10.757 8.58789 10.8621 8.61556 10.9175 8.6709C10.9728 8.72624 11.0005 8.82861 11.0005 8.97803L11.0005 9.46777C11.0005 9.61165 10.9728 9.71126 10.9175 9.7666C10.8621 9.82194 10.757 9.84961 10.6021 9.84961L10.1123 9.84961ZM12.835 9.84961C12.6855 9.84961 12.5804 9.82194 12.5195 9.7666C12.4642 9.71126 12.4365 9.61165 12.4365 9.46777L12.4365 8.97803C12.4365 8.82861 12.4642 8.72624 12.5195 8.6709C12.5804 8.61556 12.6855 8.58789 12.835 8.58789L13.3164 8.58789C13.4714 8.58789 13.5765 8.61556 13.6318 8.6709C13.6872 8.72624 13.7148 8.82861 13.7148 8.97803L13.7148 9.46777C13.7148 9.61165 13.6872 9.71126 13.6318 9.7666C13.5765 9.82194 13.4714 9.84961 13.3164 9.84961L12.835 9.84961ZM4.69189 12.5225C4.54248 12.5225 4.43734 12.4976 4.37646 12.4478C4.32113 12.3924 4.29346 12.2873 4.29346 12.1323L4.29346 11.6509C4.29346 11.5015 4.32113 11.3991 4.37646 11.3438C4.43734 11.2884 4.54248 11.2607 4.69189 11.2607L5.18164 11.2607C5.32552 11.2607 5.42513 11.2884 5.48047 11.3438C5.54134 11.3991 5.57178 11.5015 5.57178 11.6509L5.57178 12.1323C5.57178 12.2873 5.54134 12.3924 5.48047 12.4478C5.42513 12.4976 5.32552 12.5225 5.18164 12.5225L4.69189 12.5225ZM7.40625 12.5225C7.25684 12.5225 7.15169 12.4976 7.09082 12.4478C7.03548 12.3924 7.00781 12.2873 7.00781 12.1323L7.00781 11.6509C7.00781 11.5015 7.03548 11.3991 7.09082 11.3438C7.15169 11.2884 7.25684 11.2607 7.40625 11.2607L7.896 11.2607C8.03988 11.2607 8.14225 11.2884 8.20312 11.3438C8.264 11.3991 8.29443 11.5015 8.29443 11.6509L8.29443 12.1323C8.29443 12.2873 8.264 12.3924 8.20312 12.4478C8.14225 12.4976 8.03988 12.5225 7.896 12.5225L7.40625 12.5225ZM10.1123 12.5225C9.96842 12.5225 9.86605 12.4976 9.80518 12.4478C9.74984 12.3924 9.72217 12.2873 9.72217 12.1323L9.72217 11.6509C9.72217 11.5015 9.74984 11.3991 9.80518 11.3438C9.86605 11.2884 9.96842 11.2607 10.1123 11.2607L10.6021 11.2607C10.757 11.2607 10.8621 11.2884 10.9175 11.3438C10.9728 11.3991 11.0005 11.5015 11.0005 11.6509L11.0005 12.1323C11.0005 12.2873 10.9728 12.3924 10.9175 12.4478C10.8621 12.4976 10.757 12.5225 10.6021 12.5225L10.1123 12.5225Z" fill="white" fill-opacity="0.23" style="mix-blend-mode:lighten"/>
<path d="M3.28906 15.7681C2.39258 15.7681 1.71468 15.5384 1.25537 15.0791C0.796061 14.6253 0.566406 13.9557 0.566406 13.0703L0.566406 2.96826C0.566406 2.07731 0.796061 1.40495 1.25537 0.951172C1.71468 0.497396 2.39258 0.270508 3.28906 0.270508L14.7109 0.270508C15.613 0.270508 16.2909 0.497396 16.7446 0.951172C17.2039 1.40495 17.4336 2.07731 17.4336 2.96826L17.4336 13.0703C17.4336 13.9557 17.2039 14.6253 16.7446 15.0791C16.2909 15.5384 15.613 15.7681 14.7109 15.7681L3.28906 15.7681ZM3.27246 14.1328L14.7192 14.1328C15.0679 14.1328 15.3335 14.0443 15.5161 13.8672C15.7043 13.6846 15.7983 13.4134 15.7983 13.0537L15.7983 5.38379C15.7983 5.02409 15.7043 4.75293 15.5161 4.57031C15.3335 4.3877 15.0679 4.29639 14.7192 4.29639L3.27246 4.29639C2.92383 4.29639 2.6582 4.3877 2.47559 4.57031C2.29297 4.75293 2.20166 5.02409 2.20166 5.38379L2.20166 13.0537C2.20166 13.4134 2.29297 13.6846 2.47559 13.8672C2.6582 14.0443 2.92383 14.1328 3.27246 14.1328ZM7.40625 7.18506C7.25684 7.18506 7.15169 7.15739 7.09082 7.10205C7.03548 7.04118 7.00781 6.9388 7.00781 6.79492L7.00781 6.30518C7.00781 6.15576 7.03548 6.05615 7.09082 6.00635C7.15169 5.95101 7.25684 5.92334 7.40625 5.92334L7.896 5.92334C8.03988 5.92334 8.14225 5.95101 8.20312 6.00635C8.264 6.05615 8.29443 6.15576 8.29443 6.30518L8.29443 6.79492C8.29443 6.9388 8.264 7.04118 8.20312 7.10205C8.14225 7.15739 8.03988 7.18506 7.896 7.18506L7.40625 7.18506ZM10.1123 7.18506C9.96842 7.18506 9.86605 7.15739 9.80518 7.10205C9.74984 7.04118 9.72217 6.9388 9.72217 6.79492L9.72217 6.30518C9.72217 6.15576 9.74984 6.05615 9.80518 6.00635C9.86605 5.95101 9.96842 5.92334 10.1123 5.92334L10.6021 5.92334C10.757 5.92334 10.8621 5.95101 10.9175 6.00635C10.9728 6.05615 11.0005 6.15576 11.0005 6.30518L11.0005 6.79492C11.0005 6.9388 10.9728 7.04118 10.9175 7.10205C10.8621 7.15739 10.757 7.18506 10.6021 7.18506L10.1123 7.18506ZM12.835 7.18506C12.6855 7.18506 12.5804 7.15739 12.5195 7.10205C12.4642 7.04118 12.4365 6.9388 12.4365 6.79492L12.4365 6.30518C12.4365 6.15576 12.4642 6.05615 12.5195 6.00635C12.5804 5.95101 12.6855 5.92334 12.835 5.92334L13.3164 5.92334C13.4714 5.92334 13.5765 5.95101 13.6318 6.00635C13.6872 6.05615 13.7148 6.15576 13.7148 6.30518L13.7148 6.79492C13.7148 6.9388 13.6872 7.04118 13.6318 7.10205C13.5765 7.15739 13.4714 7.18506 13.3164 7.18506L12.835 7.18506ZM4.69189 9.84961C4.54248 9.84961 4.43734 9.82194 4.37646 9.7666C4.32113 9.71126 4.29346 9.61165 4.29346 9.46777L4.29346 8.97803C4.29346 8.82861 4.32113 8.72624 4.37646 8.6709C4.43734 8.61556 4.54248 8.58789 4.69189 8.58789L5.18164 8.58789C5.32552 8.58789 5.42513 8.61556 5.48047 8.6709C5.54134 8.72624 5.57178 8.82861 5.57178 8.97803L5.57178 9.46777C5.57178 9.61165 5.54134 9.71126 5.48047 9.7666C5.42513 9.82194 5.32552 9.84961 5.18164 9.84961L4.69189 9.84961ZM7.40625 9.84961C7.25684 9.84961 7.15169 9.82194 7.09082 9.7666C7.03548 9.71126 7.00781 9.61165 7.00781 9.46777L7.00781 8.97803C7.00781 8.82861 7.03548 8.72624 7.09082 8.6709C7.15169 8.61556 7.25684 8.58789 7.40625 8.58789L7.896 8.58789C8.03988 8.58789 8.14225 8.61556 8.20312 8.6709C8.264 8.72624 8.29443 8.82861 8.29443 8.97803L8.29443 9.46777C8.29443 9.61165 8.264 9.71126 8.20312 9.7666C8.14225 9.82194 8.03988 9.84961 7.896 9.84961L7.40625 9.84961ZM10.1123 9.84961C9.96842 9.84961 9.86605 9.82194 9.80518 9.7666C9.74984 9.71126 9.72217 9.61165 9.72217 9.46777L9.72217 8.97803C9.72217 8.82861 9.74984 8.72624 9.80518 8.6709C9.86605 8.61556 9.96842 8.58789 10.1123 8.58789L10.6021 8.58789C10.757 8.58789 10.8621 8.61556 10.9175 8.6709C10.9728 8.72624 11.0005 8.82861 11.0005 8.97803L11.0005 9.46777C11.0005 9.61165 10.9728 9.71126 10.9175 9.7666C10.8621 9.82194 10.757 9.84961 10.6021 9.84961L10.1123 9.84961ZM12.835 9.84961C12.6855 9.84961 12.5804 9.82194 12.5195 9.7666C12.4642 9.71126 12.4365 9.61165 12.4365 9.46777L12.4365 8.97803C12.4365 8.82861 12.4642 8.72624 12.5195 8.6709C12.5804 8.61556 12.6855 8.58789 12.835 8.58789L13.3164 8.58789C13.4714 8.58789 13.5765 8.61556 13.6318 8.6709C13.6872 8.72624 13.7148 8.82861 13.7148 8.97803L13.7148 9.46777C13.7148 9.61165 13.6872 9.71126 13.6318 9.7666C13.5765 9.82194 13.4714 9.84961 13.3164 9.84961L12.835 9.84961ZM4.69189 12.5225C4.54248 12.5225 4.43734 12.4976 4.37646 12.4478C4.32113 12.3924 4.29346 12.2873 4.29346 12.1323L4.29346 11.6509C4.29346 11.5015 4.32113 11.3991 4.37646 11.3438C4.43734 11.2884 4.54248 11.2607 4.69189 11.2607L5.18164 11.2607C5.32552 11.2607 5.42513 11.2884 5.48047 11.3438C5.54134 11.3991 5.57178 11.5015 5.57178 11.6509L5.57178 12.1323C5.57178 12.2873 5.54134 12.3924 5.48047 12.4478C5.42513 12.4976 5.32552 12.5225 5.18164 12.5225L4.69189 12.5225ZM7.40625 12.5225C7.25684 12.5225 7.15169 12.4976 7.09082 12.4478C7.03548 12.3924 7.00781 12.2873 7.00781 12.1323L7.00781 11.6509C7.00781 11.5015 7.03548 11.3991 7.09082 11.3438C7.15169 11.2884 7.25684 11.2607 7.40625 11.2607L7.896 11.2607C8.03988 11.2607 8.14225 11.2884 8.20312 11.3438C8.264 11.3991 8.29443 11.5015 8.29443 11.6509L8.29443 12.1323C8.29443 12.2873 8.264 12.3924 8.20312 12.4478C8.14225 12.4976 8.03988 12.5225 7.896 12.5225L7.40625 12.5225ZM10.1123 12.5225C9.96842 12.5225 9.86605 12.4976 9.80518 12.4478C9.74984 12.3924 9.72217 12.2873 9.72217 12.1323L9.72217 11.6509C9.72217 11.5015 9.74984 11.3991 9.80518 11.3438C9.86605 11.2884 9.96842 11.2607 10.1123 11.2607L10.6021 11.2607C10.757 11.2607 10.8621 11.2884 10.9175 11.3438C10.9728 11.3991 11.0005 11.5015 11.0005 11.6509L11.0005 12.1323C11.0005 12.2873 10.9728 12.3924 10.9175 12.4478C10.8621 12.4976 10.757 12.5225 10.6021 12.5225L10.1123 12.5225Z" fill="#545454" style="mix-blend-mode:color-dodge"/>
</svg>
