<svg width="16" height="16" viewBox="0 0 16 16" fill="none" xmlns="http://www.w3.org/2000/svg">
<path d="M2.96973 15.7681C2.07324 15.7681 1.39535 15.5384 0.936035 15.0791C0.476725 14.6253 0.24707 13.9557 0.24707 13.0703V2.96826C0.24707 2.07731 0.476725 1.40495 0.936035 0.951172C1.39535 0.497396 2.07324 0.270508 2.96973 0.270508H13.022C13.9185 0.270508 14.5964 0.497396 15.0557 0.951172C15.515 1.40495 15.7446 2.07731 15.7446 2.96826V13.0703C15.7446 13.9557 15.515 14.6253 15.0557 15.0791C14.5964 15.5384 13.9185 15.7681 13.022 15.7681H2.96973ZM3.06934 14.1328H12.9224C13.3042 14.1328 13.5975 14.0332 13.8022 13.834C14.007 13.6348 14.1094 13.3332 14.1094 12.9292V3.10107C14.1094 2.70264 14.007 2.40381 13.8022 2.20459C13.5975 2.00537 13.3042 1.90576 12.9224 1.90576H3.06934C2.68197 1.90576 2.3859 2.00537 2.18115 2.20459C1.98193 2.40381 1.88232 2.70264 1.88232 3.10107V12.9292C1.88232 13.3332 1.98193 13.6348 2.18115 13.834C2.3859 14.0332 2.68197 14.1328 3.06934 14.1328Z" fill="white" fill-opacity="0.23" style="mix-blend-mode:lighten"/>
<path d="M2.96973 15.7681C2.07324 15.7681 1.39535 15.5384 0.936035 15.0791C0.476725 14.6253 0.24707 13.9557 0.24707 13.0703V2.96826C0.24707 2.07731 0.476725 1.40495 0.936035 0.951172C1.39535 0.497396 2.07324 0.270508 2.96973 0.270508H13.022C13.9185 0.270508 14.5964 0.497396 15.0557 0.951172C15.515 1.40495 15.7446 2.07731 15.7446 2.96826V13.0703C15.7446 13.9557 15.515 14.6253 15.0557 15.0791C14.5964 15.5384 13.9185 15.7681 13.022 15.7681H2.96973ZM3.06934 14.1328H12.9224C13.3042 14.1328 13.5975 14.0332 13.8022 13.834C14.007 13.6348 14.1094 13.3332 14.1094 12.9292V3.10107C14.1094 2.70264 14.007 2.40381 13.8022 2.20459C13.5975 2.00537 13.3042 1.90576 12.9224 1.90576H3.06934C2.68197 1.90576 2.3859 2.00537 2.18115 2.20459C1.98193 2.40381 1.88232 2.70264 1.88232 3.10107V12.9292C1.88232 13.3332 1.98193 13.6348 2.18115 13.834C2.3859 14.0332 2.68197 14.1328 3.06934 14.1328Z" fill="#545454" style="mix-blend-mode:color-dodge"/>
</svg>
