<svg width="44" height="44" viewBox="0 0 44 44" fill="none" xmlns="http://www.w3.org/2000/svg">
<g clip-path="url(#clip0_10_2797)">
<rect width="44" height="44" rx="22" fill="white" fill-opacity="0.06" style="mix-blend-mode:lighten"/>
<rect width="44" height="44" rx="22" fill="#5E5E5E" fill-opacity="0.18" style="mix-blend-mode:color-dodge"/>
<path d="M14.8193 29.4824C14.6833 29.3525 14.5936 29.1979 14.5503 29.0186C14.507 28.8392 14.507 28.6598 14.5503 28.4805C14.5998 28.3011 14.6895 28.1496 14.8193 28.0259L20.5156 22.311L14.8193 16.6055C14.6895 16.4818 14.6029 16.3302 14.5596 16.1509C14.5163 15.9715 14.5163 15.7922 14.5596 15.6128C14.6029 15.4334 14.6895 15.2788 14.8193 15.1489C14.9554 15.0129 15.1131 14.9232 15.2925 14.8799C15.4718 14.8366 15.6512 14.8366 15.8306 14.8799C16.0099 14.9232 16.1646 15.0098 16.2944 15.1396L22 20.8452L27.6963 15.1396C27.8262 15.0036 27.9808 14.917 28.1602 14.8799C28.3395 14.8366 28.5158 14.8366 28.689 14.8799C28.8683 14.9232 29.0291 15.0129 29.1714 15.1489C29.3013 15.2788 29.3879 15.4334 29.4312 15.6128C29.4806 15.7922 29.4806 15.9715 29.4312 16.1509C29.3879 16.3241 29.3013 16.4787 29.1714 16.6147L23.4751 22.311L29.1714 28.0166C29.3013 28.1527 29.3879 28.3104 29.4312 28.4897C29.4744 28.6629 29.4744 28.8392 29.4312 29.0186C29.3879 29.1979 29.3013 29.3525 29.1714 29.4824C29.0353 29.6185 28.8776 29.7082 28.6982 29.7515C28.5189 29.7948 28.3395 29.7948 28.1602 29.7515C27.9808 29.7082 27.8262 29.6216 27.6963 29.4917L22 23.7861L16.2944 29.4917C16.1646 29.6216 16.0099 29.7082 15.8306 29.7515C15.6574 29.7948 15.478 29.7948 15.2925 29.7515C15.1131 29.7082 14.9554 29.6185 14.8193 29.4824Z" fill="white" fill-opacity="0.96"/>
</g>
<defs>
<clipPath id="clip0_10_2797">
<rect width="44" height="44" rx="22" fill="white"/>
</clipPath>
</defs>
</svg>
