<svg width="18" height="18" viewBox="0 0 18 18" fill="none" xmlns="http://www.w3.org/2000/svg">
<path d="M2.49219 13.2651L2.31787 12.4019C2.56689 12.3576 2.78548 12.3133 2.97363 12.269C3.16732 12.2192 3.31673 12.1252 3.42187 11.9868C3.53255 11.8485 3.58789 11.616 3.58789 11.2896C3.58789 10.9797 3.62663 10.7417 3.7041 10.5757C3.78711 10.4041 3.87842 10.2713 3.97803 10.1772C4.08317 10.0776 4.17725 9.98356 4.26025 9.89502C4.34326 9.80648 4.38477 9.6875 4.38477 9.53809C4.38477 9.41634 4.29622 9.28076 4.11914 9.13135C3.94759 8.98193 3.74561 8.81868 3.51318 8.6416C3.2863 8.46452 3.08708 8.27913 2.91553 8.08545C2.74398 7.89176 2.6582 7.69255 2.6582 7.48779C2.6582 7.21663 2.77165 6.96208 2.99854 6.72412C3.22542 6.48063 3.49105 6.35889 3.79541 6.35889C3.9891 6.35889 4.17725 6.41976 4.35986 6.5415C4.54248 6.66325 4.7251 6.80436 4.90771 6.96484C5.01286 7.05892 5.1429 7.17236 5.29785 7.30518C5.45833 7.43799 5.56624 7.50439 5.62158 7.50439C5.68799 7.50439 5.7959 7.46012 5.94531 7.37158C6.10026 7.27751 6.26904 7.23047 6.45166 7.23047C6.63428 7.23047 6.80306 7.28304 6.95801 7.38818C7.11296 7.49333 7.2347 7.66764 7.32324 7.91113L7.79639 9.09814C7.86833 9.29183 7.95687 9.43294 8.06201 9.52148C8.16715 9.61003 8.2723 9.6958 8.37744 9.77881C8.48812 9.86182 8.59049 9.97803 8.68457 10.1274C8.77865 10.2769 8.85059 10.5037 8.90039 10.8081C9.02767 11.6991 9.15495 12.3521 9.28223 12.7671C9.41504 13.1821 9.58105 13.3896 9.78027 13.3896C9.94076 13.3896 10.0487 13.2845 10.104 13.0742C10.1649 12.8584 10.1953 12.4738 10.1953 11.9204C10.1953 11.5386 10.2866 11.1623 10.4692 10.7915C10.6574 10.4207 10.8926 10.0832 11.1748 9.77881C11.4626 9.47445 11.7586 9.23096 12.063 9.04834C12.3674 8.86572 12.6385 8.77441 12.8765 8.77441C13.1974 8.77441 13.4465 8.85742 13.6235 9.02344C13.8006 9.18945 13.9528 9.39421 14.0801 9.6377C14.2074 9.88118 14.3512 10.1247 14.5117 10.3682C14.6722 10.6117 14.888 10.8164 15.1592 10.9824C15.4359 11.1484 15.8149 11.2342 16.2964 11.2397L16.2964 12.1279C15.7762 12.1169 15.3418 12.0283 14.9932 11.8623C14.6501 11.6963 14.3651 11.4915 14.1382 11.248C13.9168 11.0046 13.7314 10.7611 13.582 10.5176C13.4382 10.2741 13.3136 10.0693 13.2085 9.90332C13.1034 9.7373 12.9927 9.6543 12.8765 9.6543C12.7603 9.6543 12.6025 9.7207 12.4033 9.85352C12.2096 9.98079 12.0104 10.1551 11.8057 10.3765C11.6009 10.5923 11.4266 10.8358 11.2827 11.1069C11.1444 11.3726 11.0752 11.6437 11.0752 11.9204C11.0752 12.6619 10.9811 13.2402 10.793 13.6553C10.6048 14.0648 10.2673 14.2695 9.78027 14.2695C9.45378 14.2695 9.18262 14.1589 8.9668 13.9375C8.75098 13.7161 8.57113 13.362 8.42725 12.875C8.28337 12.388 8.15332 11.7461 8.03711 10.9492C7.99837 10.7113 7.9126 10.5397 7.77979 10.4346C7.65251 10.3294 7.50863 10.2049 7.34814 10.061C7.1932 9.91715 7.05762 9.67643 6.94141 9.33887L6.60937 8.42578C6.55404 8.27083 6.47103 8.19336 6.36035 8.19336C6.26074 8.19336 6.1639 8.2321 6.06982 8.30957C5.97575 8.38151 5.83187 8.41748 5.63818 8.41748C5.4445 8.41748 5.25635 8.35107 5.07373 8.21826C4.89111 8.08545 4.65316 7.8973 4.35986 7.65381C4.18278 7.49886 4.05827 7.39095 3.98633 7.33008C3.91439 7.26921 3.85075 7.23877 3.79541 7.23877C3.729 7.23877 3.66813 7.26644 3.61279 7.32178C3.56299 7.37712 3.53809 7.43799 3.53809 7.50439C3.53809 7.5708 3.56852 7.63167 3.62939 7.68701L4.17725 8.12695C4.51481 8.40918 4.78044 8.64714 4.97412 8.84082C5.16781 9.02897 5.26465 9.23096 5.26465 9.44678C5.26465 9.6792 5.22314 9.87012 5.14014 10.0195C5.06266 10.1634 4.97135 10.2935 4.86621 10.4097C4.76107 10.5203 4.66976 10.6449 4.59229 10.7832C4.51481 10.9215 4.47607 11.0986 4.47607 11.3145C4.47607 11.7461 4.39583 12.092 4.23535 12.3521C4.07487 12.6121 3.84521 12.8141 3.54639 12.958C3.25309 13.0964 2.90169 13.1987 2.49219 13.2651ZM2.79102 4.21729L3.58789 4.06787C3.61003 4.31136 3.67367 4.48844 3.77881 4.59912C3.88395 4.7098 3.97803 4.76514 4.06104 4.76514C4.13851 4.76514 4.21598 4.73193 4.29346 4.66553C4.37093 4.59912 4.42074 4.49951 4.44287 4.3667C4.48161 4.16195 4.55078 4.01807 4.65039 3.93506C4.75553 3.84652 4.85238 3.78011 4.94092 3.73584C5.02946 3.68604 5.07373 3.61963 5.07373 3.53662C5.07373 3.43701 5.02946 3.3457 4.94092 3.2627C4.85238 3.17415 4.71403 3.02474 4.52588 2.81445L5.15674 2.2085C5.4113 2.47412 5.60775 2.71761 5.74609 2.93896C5.88997 3.15479 5.96191 3.36507 5.96191 3.56982C5.96191 3.76904 5.91764 3.93229 5.8291 4.05957C5.74609 4.18685 5.61328 4.30029 5.43066 4.3999C5.35319 4.44417 5.29508 4.49398 5.25635 4.54932C5.22314 4.60465 5.19271 4.68213 5.16504 4.78174C5.09863 5.04183 4.96305 5.25212 4.7583 5.4126C4.55908 5.56755 4.32943 5.64502 4.06934 5.64502C3.7373 5.64502 3.45231 5.50667 3.21436 5.22998C2.9764 4.95329 2.83529 4.61572 2.79102 4.21729ZM8.9917 17.5815C7.81852 17.5815 6.71452 17.3574 5.67969 16.9092C4.64486 16.4665 3.73177 15.8494 2.94043 15.0581C2.15462 14.2668 1.5376 13.3537 1.08936 12.3188C0.641113 11.284 0.416992 10.18 0.416992 9.00684C0.416992 7.83366 0.641113 6.72965 1.08936 5.69482C1.5376 4.65999 2.15462 3.74967 2.94043 2.96387C3.73177 2.17253 4.64209 1.55273 5.67139 1.10449C6.70622 0.65625 7.81022 0.432129 8.9834 0.432129C10.1621 0.432129 11.2689 0.65625 12.3037 1.10449C13.3385 1.55273 14.2516 2.17253 15.043 2.96387C15.8343 3.74967 16.4541 4.65999 16.9023 5.69482C17.3506 6.72965 17.5747 7.83366 17.5747 9.00684C17.5747 10.18 17.3506 11.284 16.9023 12.3188C16.4541 13.3537 15.8343 14.2668 15.043 15.0581C14.2516 15.8494 13.3385 16.4665 12.3037 16.9092C11.2689 17.3574 10.1649 17.5815 8.9917 17.5815ZM8.9917 16.2534C9.98226 16.2534 10.9147 16.0625 11.7891 15.6807C12.6634 15.3044 13.4326 14.7842 14.0967 14.1201C14.7663 13.4505 15.2892 12.6785 15.6655 11.8042C16.0474 10.9299 16.2383 9.9974 16.2383 9.00684C16.2383 8.01628 16.0474 7.08382 15.6655 6.20947C15.2892 5.33512 14.7663 4.56592 14.0967 3.90186C13.4271 3.23779 12.6551 2.71761 11.7808 2.34131C10.9064 1.95947 9.97396 1.76855 8.9834 1.76855C7.99837 1.76855 7.06868 1.95947 6.19434 2.34131C5.31999 2.71761 4.55078 3.23779 3.88672 3.90186C3.22266 4.56592 2.69971 5.33512 2.31787 6.20947C1.94157 7.08382 1.75342 8.01628 1.75342 9.00684C1.75342 9.9974 1.94157 10.9299 2.31787 11.8042C2.69971 12.6785 3.22266 13.4505 3.88672 14.1201C4.55078 14.7842 5.31999 15.3044 6.19434 15.6807C7.06868 16.0625 8.00114 16.2534 8.9917 16.2534Z" fill="white" fill-opacity="0.23" style="mix-blend-mode:lighten"/>
<path d="M2.49219 13.2651L2.31787 12.4019C2.56689 12.3576 2.78548 12.3133 2.97363 12.269C3.16732 12.2192 3.31673 12.1252 3.42187 11.9868C3.53255 11.8485 3.58789 11.616 3.58789 11.2896C3.58789 10.9797 3.62663 10.7417 3.7041 10.5757C3.78711 10.4041 3.87842 10.2713 3.97803 10.1772C4.08317 10.0776 4.17725 9.98356 4.26025 9.89502C4.34326 9.80648 4.38477 9.6875 4.38477 9.53809C4.38477 9.41634 4.29622 9.28076 4.11914 9.13135C3.94759 8.98193 3.74561 8.81868 3.51318 8.6416C3.2863 8.46452 3.08708 8.27913 2.91553 8.08545C2.74398 7.89176 2.6582 7.69255 2.6582 7.48779C2.6582 7.21663 2.77165 6.96208 2.99854 6.72412C3.22542 6.48063 3.49105 6.35889 3.79541 6.35889C3.9891 6.35889 4.17725 6.41976 4.35986 6.5415C4.54248 6.66325 4.7251 6.80436 4.90771 6.96484C5.01286 7.05892 5.1429 7.17236 5.29785 7.30518C5.45833 7.43799 5.56624 7.50439 5.62158 7.50439C5.68799 7.50439 5.7959 7.46012 5.94531 7.37158C6.10026 7.27751 6.26904 7.23047 6.45166 7.23047C6.63428 7.23047 6.80306 7.28304 6.95801 7.38818C7.11296 7.49333 7.2347 7.66764 7.32324 7.91113L7.79639 9.09814C7.86833 9.29183 7.95687 9.43294 8.06201 9.52148C8.16715 9.61003 8.2723 9.6958 8.37744 9.77881C8.48812 9.86182 8.59049 9.97803 8.68457 10.1274C8.77865 10.2769 8.85059 10.5037 8.90039 10.8081C9.02767 11.6991 9.15495 12.3521 9.28223 12.7671C9.41504 13.1821 9.58105 13.3896 9.78027 13.3896C9.94076 13.3896 10.0487 13.2845 10.104 13.0742C10.1649 12.8584 10.1953 12.4738 10.1953 11.9204C10.1953 11.5386 10.2866 11.1623 10.4692 10.7915C10.6574 10.4207 10.8926 10.0832 11.1748 9.77881C11.4626 9.47445 11.7586 9.23096 12.063 9.04834C12.3674 8.86572 12.6385 8.77441 12.8765 8.77441C13.1974 8.77441 13.4465 8.85742 13.6235 9.02344C13.8006 9.18945 13.9528 9.39421 14.0801 9.6377C14.2074 9.88118 14.3512 10.1247 14.5117 10.3682C14.6722 10.6117 14.888 10.8164 15.1592 10.9824C15.4359 11.1484 15.8149 11.2342 16.2964 11.2397L16.2964 12.1279C15.7762 12.1169 15.3418 12.0283 14.9932 11.8623C14.6501 11.6963 14.3651 11.4915 14.1382 11.248C13.9168 11.0046 13.7314 10.7611 13.582 10.5176C13.4382 10.2741 13.3136 10.0693 13.2085 9.90332C13.1034 9.7373 12.9927 9.6543 12.8765 9.6543C12.7603 9.6543 12.6025 9.7207 12.4033 9.85352C12.2096 9.98079 12.0104 10.1551 11.8057 10.3765C11.6009 10.5923 11.4266 10.8358 11.2827 11.1069C11.1444 11.3726 11.0752 11.6437 11.0752 11.9204C11.0752 12.6619 10.9811 13.2402 10.793 13.6553C10.6048 14.0648 10.2673 14.2695 9.78027 14.2695C9.45378 14.2695 9.18262 14.1589 8.9668 13.9375C8.75098 13.7161 8.57113 13.362 8.42725 12.875C8.28337 12.388 8.15332 11.7461 8.03711 10.9492C7.99837 10.7113 7.9126 10.5397 7.77979 10.4346C7.65251 10.3294 7.50863 10.2049 7.34814 10.061C7.1932 9.91715 7.05762 9.67643 6.94141 9.33887L6.60937 8.42578C6.55404 8.27083 6.47103 8.19336 6.36035 8.19336C6.26074 8.19336 6.1639 8.2321 6.06982 8.30957C5.97575 8.38151 5.83187 8.41748 5.63818 8.41748C5.4445 8.41748 5.25635 8.35107 5.07373 8.21826C4.89111 8.08545 4.65316 7.8973 4.35986 7.65381C4.18278 7.49886 4.05827 7.39095 3.98633 7.33008C3.91439 7.26921 3.85075 7.23877 3.79541 7.23877C3.729 7.23877 3.66813 7.26644 3.61279 7.32178C3.56299 7.37712 3.53809 7.43799 3.53809 7.50439C3.53809 7.5708 3.56852 7.63167 3.62939 7.68701L4.17725 8.12695C4.51481 8.40918 4.78044 8.64714 4.97412 8.84082C5.16781 9.02897 5.26465 9.23096 5.26465 9.44678C5.26465 9.6792 5.22314 9.87012 5.14014 10.0195C5.06266 10.1634 4.97135 10.2935 4.86621 10.4097C4.76107 10.5203 4.66976 10.6449 4.59229 10.7832C4.51481 10.9215 4.47607 11.0986 4.47607 11.3145C4.47607 11.7461 4.39583 12.092 4.23535 12.3521C4.07487 12.6121 3.84521 12.8141 3.54639 12.958C3.25309 13.0964 2.90169 13.1987 2.49219 13.2651ZM2.79102 4.21729L3.58789 4.06787C3.61003 4.31136 3.67367 4.48844 3.77881 4.59912C3.88395 4.7098 3.97803 4.76514 4.06104 4.76514C4.13851 4.76514 4.21598 4.73193 4.29346 4.66553C4.37093 4.59912 4.42074 4.49951 4.44287 4.3667C4.48161 4.16195 4.55078 4.01807 4.65039 3.93506C4.75553 3.84652 4.85238 3.78011 4.94092 3.73584C5.02946 3.68604 5.07373 3.61963 5.07373 3.53662C5.07373 3.43701 5.02946 3.3457 4.94092 3.2627C4.85238 3.17415 4.71403 3.02474 4.52588 2.81445L5.15674 2.2085C5.4113 2.47412 5.60775 2.71761 5.74609 2.93896C5.88997 3.15479 5.96191 3.36507 5.96191 3.56982C5.96191 3.76904 5.91764 3.93229 5.8291 4.05957C5.74609 4.18685 5.61328 4.30029 5.43066 4.3999C5.35319 4.44417 5.29508 4.49398 5.25635 4.54932C5.22314 4.60465 5.19271 4.68213 5.16504 4.78174C5.09863 5.04183 4.96305 5.25212 4.7583 5.4126C4.55908 5.56755 4.32943 5.64502 4.06934 5.64502C3.7373 5.64502 3.45231 5.50667 3.21436 5.22998C2.9764 4.95329 2.83529 4.61572 2.79102 4.21729ZM8.9917 17.5815C7.81852 17.5815 6.71452 17.3574 5.67969 16.9092C4.64486 16.4665 3.73177 15.8494 2.94043 15.0581C2.15462 14.2668 1.5376 13.3537 1.08936 12.3188C0.641113 11.284 0.416992 10.18 0.416992 9.00684C0.416992 7.83366 0.641113 6.72965 1.08936 5.69482C1.5376 4.65999 2.15462 3.74967 2.94043 2.96387C3.73177 2.17253 4.64209 1.55273 5.67139 1.10449C6.70622 0.65625 7.81022 0.432129 8.9834 0.432129C10.1621 0.432129 11.2689 0.65625 12.3037 1.10449C13.3385 1.55273 14.2516 2.17253 15.043 2.96387C15.8343 3.74967 16.4541 4.65999 16.9023 5.69482C17.3506 6.72965 17.5747 7.83366 17.5747 9.00684C17.5747 10.18 17.3506 11.284 16.9023 12.3188C16.4541 13.3537 15.8343 14.2668 15.043 15.0581C14.2516 15.8494 13.3385 16.4665 12.3037 16.9092C11.2689 17.3574 10.1649 17.5815 8.9917 17.5815ZM8.9917 16.2534C9.98226 16.2534 10.9147 16.0625 11.7891 15.6807C12.6634 15.3044 13.4326 14.7842 14.0967 14.1201C14.7663 13.4505 15.2892 12.6785 15.6655 11.8042C16.0474 10.9299 16.2383 9.9974 16.2383 9.00684C16.2383 8.01628 16.0474 7.08382 15.6655 6.20947C15.2892 5.33512 14.7663 4.56592 14.0967 3.90186C13.4271 3.23779 12.6551 2.71761 11.7808 2.34131C10.9064 1.95947 9.97396 1.76855 8.9834 1.76855C7.99837 1.76855 7.06868 1.95947 6.19434 2.34131C5.31999 2.71761 4.55078 3.23779 3.88672 3.90186C3.22266 4.56592 2.69971 5.33512 2.31787 6.20947C1.94157 7.08382 1.75342 8.01628 1.75342 9.00684C1.75342 9.9974 1.94157 10.9299 2.31787 11.8042C2.69971 12.6785 3.22266 13.4505 3.88672 14.1201C4.55078 14.7842 5.31999 15.3044 6.19434 15.6807C7.06868 16.0625 8.00114 16.2534 8.9917 16.2534Z" fill="#545454" style="mix-blend-mode:color-dodge"/>
</svg>
