<svg width="45" height="44" viewBox="0 0 45 44" fill="none" xmlns="http://www.w3.org/2000/svg">
<g clip-path="url(#clip0_204_89)">
<rect x="0.5" width="44" height="44" rx="22" fill="white" fill-opacity="0.06" style="mix-blend-mode:lighten"/>
<rect x="0.5" width="44" height="44" rx="22" fill="#5E5E5E" fill-opacity="0.18" style="mix-blend-mode:color-dodge"/>
<path d="M25.9419 30.4473C25.5028 30.4473 25.1007 30.339 24.7358 30.1226C24.3771 29.9061 24.0895 29.6154 23.873 29.2505C23.6566 28.8918 23.5483 28.4928 23.5483 28.0537C23.5483 27.6208 23.6566 27.2249 23.873 26.8662C24.0895 26.5013 24.3771 26.2106 24.7358 25.9941C25.1007 25.7777 25.5028 25.6694 25.9419 25.6694C26.3748 25.6694 26.7707 25.7777 27.1294 25.9941C27.4943 26.2106 27.785 26.5013 28.0015 26.8662C28.2179 27.2249 28.3262 27.6208 28.3262 28.0537C28.3262 28.4928 28.2179 28.8918 28.0015 29.2505C27.785 29.6154 27.4943 29.9061 27.1294 30.1226C26.7707 30.339 26.3748 30.4473 25.9419 30.4473ZM25.9419 29.1948C26.2573 29.1948 26.5233 29.0866 26.7397 28.8701C26.9624 28.6475 27.0737 28.3753 27.0737 28.0537C27.0737 27.7321 26.9624 27.4631 26.7397 27.2466C26.5233 27.0301 26.2573 26.9219 25.9419 26.9219C25.6203 26.9219 25.3481 27.0301 25.1255 27.2466C24.909 27.4631 24.8008 27.7321 24.8008 28.0537C24.8008 28.3753 24.909 28.6475 25.1255 28.8701C25.3481 29.0866 25.6203 29.1948 25.9419 29.1948ZM24.3555 27.1724V28.9351H13.7979C13.5566 28.9351 13.3494 28.8485 13.1763 28.6753C13.0093 28.5021 12.9258 28.2949 12.9258 28.0537C12.9258 27.8125 13.0093 27.6053 13.1763 27.4321C13.3494 27.259 13.5566 27.1724 13.7979 27.1724H24.3555ZM31.2207 27.1724C31.4495 27.1724 31.6475 27.259 31.8145 27.4321C31.9814 27.6053 32.0649 27.8125 32.0649 28.0537C32.0649 28.2949 31.9814 28.5021 31.8145 28.6753C31.6475 28.8485 31.4495 28.9351 31.2207 28.9351H27.6211V27.1724H31.2207ZM19.1602 24.6675C18.721 24.6675 18.319 24.5592 17.9541 24.3428C17.5954 24.1263 17.3078 23.8387 17.0913 23.48C16.8748 23.1151 16.7666 22.7161 16.7666 22.2832C16.7666 21.8441 16.8748 21.4451 17.0913 21.0864C17.3078 20.7215 17.5954 20.4308 17.9541 20.2144C18.319 19.9979 18.721 19.8896 19.1602 19.8896C19.5931 19.8896 19.9889 19.9979 20.3477 20.2144C20.7126 20.4308 21.0033 20.7215 21.2197 21.0864C21.4362 21.4451 21.5444 21.8441 21.5444 22.2832C21.5444 22.7161 21.4362 23.1151 21.2197 23.48C21.0033 23.8387 20.7126 24.1263 20.3477 24.3428C19.9889 24.5592 19.5931 24.6675 19.1602 24.6675ZM19.1602 23.415C19.4818 23.415 19.7508 23.3068 19.9673 23.0903C20.1838 22.8677 20.292 22.5986 20.292 22.2832C20.292 21.9554 20.1838 21.6833 19.9673 21.4668C19.7508 21.2503 19.4818 21.1421 19.1602 21.1421C18.8385 21.1421 18.5664 21.2503 18.3438 21.4668C18.1273 21.6833 18.019 21.9554 18.019 22.2832C18.019 22.5986 18.1273 22.8677 18.3438 23.0903C18.5664 23.3068 18.8385 23.415 19.1602 23.415ZM13.7607 21.3926H17.5088V23.1553H13.7607C13.5381 23.1553 13.3433 23.0718 13.1763 22.9048C13.0093 22.7316 12.9258 22.5244 12.9258 22.2832C12.9258 22.0358 13.0093 21.8255 13.1763 21.6523C13.3433 21.4792 13.5381 21.3926 13.7607 21.3926ZM31.1836 21.3926C31.431 21.3926 31.6382 21.4792 31.8052 21.6523C31.9784 21.8255 32.0649 22.0358 32.0649 22.2832C32.0649 22.5244 31.9784 22.7316 31.8052 22.9048C31.6382 23.0718 31.431 23.1553 31.1836 23.1553H20.7188V21.3926H31.1836ZM25.9419 18.8877C25.5028 18.8877 25.1007 18.7795 24.7358 18.563C24.3771 18.3465 24.0895 18.0589 23.873 17.7002C23.6566 17.3353 23.5483 16.9364 23.5483 16.5034C23.5483 16.0643 23.6566 15.6654 23.873 15.3066C24.0895 14.9417 24.3771 14.651 24.7358 14.4346C25.1007 14.2181 25.5028 14.1099 25.9419 14.1099C26.3748 14.1099 26.7707 14.2181 27.1294 14.4346C27.4943 14.651 27.785 14.9417 28.0015 15.3066C28.2179 15.6654 28.3262 16.0643 28.3262 16.5034C28.3262 16.9364 28.2179 17.3353 28.0015 17.7002C27.785 18.0589 27.4943 18.3465 27.1294 18.563C26.7707 18.7795 26.3748 18.8877 25.9419 18.8877ZM25.9419 17.6353C26.2573 17.6353 26.5233 17.5239 26.7397 17.3013C26.9624 17.0786 27.0737 16.8096 27.0737 16.4941C27.0737 16.1725 26.9624 15.9035 26.7397 15.687C26.5233 15.4644 26.2573 15.353 25.9419 15.353C25.6203 15.353 25.3481 15.4644 25.1255 15.687C24.909 15.9035 24.8008 16.1725 24.8008 16.4941C24.8008 16.8096 24.909 17.0786 25.1255 17.3013C25.3481 17.5239 25.6203 17.6353 25.9419 17.6353ZM24.4019 15.6221V17.3848H13.7979C13.5566 17.3848 13.3494 17.2982 13.1763 17.125C13.0093 16.9518 12.9258 16.7446 12.9258 16.5034C12.9258 16.2622 13.0093 16.055 13.1763 15.8818C13.3494 15.7087 13.5566 15.6221 13.7979 15.6221H24.4019ZM31.2207 15.6221C31.4495 15.6221 31.6475 15.7087 31.8145 15.8818C31.9814 16.055 32.0649 16.2622 32.0649 16.5034C32.0649 16.7446 31.9814 16.9518 31.8145 17.125C31.6475 17.2982 31.4495 17.3848 31.2207 17.3848H27.5098V15.6221H31.2207Z" fill="white" fill-opacity="0.96"/>
</g>
<defs>
<clipPath id="clip0_204_89">
<rect x="0.5" width="44" height="44" rx="22" fill="white"/>
</clipPath>
</defs>
</svg>
