<svg width="45" height="44" viewBox="0 0 45 44" fill="none" xmlns="http://www.w3.org/2000/svg">
<g clip-path="url(#clip0_1_1059)">
<rect x="0.5" width="44" height="44" rx="22" fill="white" fill-opacity="0.06" style="mix-blend-mode:lighten"/>
<rect x="0.5" width="44" height="44" rx="22" fill="#5E5E5E" fill-opacity="0.18" style="mix-blend-mode:color-dodge"/>
<path d="M15.0874 28.3599C14.6112 28.3599 14.237 28.2424 13.9648 28.0073C13.6927 27.7723 13.5566 27.46 13.5566 27.0703C13.5566 26.7487 13.6401 26.4395 13.8071 26.1426C13.9803 25.8395 14.1999 25.5488 14.4658 25.2705C14.7318 24.9922 15.0039 24.7201 15.2822 24.4541C15.4987 24.2438 15.6657 23.9686 15.7832 23.6284C15.9007 23.2821 15.9904 22.9048 16.0522 22.4966C16.1141 22.0884 16.1636 21.6833 16.2007 21.2812C16.244 20.1432 16.3893 19.1258 16.6367 18.229C16.8903 17.326 17.2707 16.5684 17.7778 15.9561C18.285 15.3376 18.9375 14.883 19.7354 14.5923C19.9271 13.98 20.2642 13.4666 20.7466 13.0522C21.229 12.6379 21.8104 12.4307 22.4907 12.4307C22.9608 12.4307 23.3813 12.5296 23.7524 12.7275C23.4061 13.1234 23.1278 13.578 22.9175 14.0913C22.7134 14.5985 22.6113 15.1366 22.6113 15.7056C22.6113 16.5282 22.8154 17.2827 23.2236 17.9692C23.6318 18.6496 24.1761 19.1938 24.8564 19.6021C25.543 20.0103 26.2975 20.2144 27.1201 20.2144C27.4046 20.2144 27.6768 20.1865 27.9365 20.1309C28.2025 20.0752 28.4591 19.9948 28.7065 19.8896C28.7437 20.168 28.7715 20.4525 28.79 20.7432C28.8148 21.0277 28.8333 21.3215 28.8457 21.6245C28.8766 21.9709 28.9199 22.3234 28.9756 22.6821C29.0374 23.0409 29.124 23.3779 29.2354 23.6934C29.3529 24.0026 29.5106 24.2562 29.7085 24.4541C29.9868 24.7201 30.259 24.9922 30.5249 25.2705C30.7909 25.5488 31.0104 25.8395 31.1836 26.1426C31.3568 26.4395 31.4434 26.7487 31.4434 27.0703C31.4434 27.46 31.3042 27.7723 31.0259 28.0073C30.7537 28.2424 30.3796 28.3599 29.9033 28.3599H15.0874ZM22.5 32.1821C21.9557 32.1821 21.4671 32.0646 21.0342 31.8296C20.6012 31.6007 20.2549 31.2946 19.9951 30.9111C19.7354 30.5277 19.5869 30.1102 19.5498 29.6587H25.4502C25.4131 30.1102 25.2616 30.5277 24.9956 30.9111C24.7358 31.2946 24.3895 31.6007 23.9565 31.8296C23.5298 32.0646 23.0443 32.1821 22.5 32.1821ZM27.1387 18.9155C26.5449 18.9155 26.0068 18.7702 25.5244 18.4795C25.042 18.1888 24.6554 17.7992 24.3647 17.3105C24.0741 16.8219 23.9287 16.2869 23.9287 15.7056C23.9287 15.118 24.0741 14.583 24.3647 14.1006C24.6554 13.612 25.042 13.2223 25.5244 12.9316C26.0068 12.641 26.5449 12.4956 27.1387 12.4956C27.7139 12.4956 28.2427 12.641 28.7251 12.9316C29.2137 13.2223 29.6034 13.612 29.894 14.1006C30.1847 14.583 30.3301 15.118 30.3301 15.7056C30.3301 16.2869 30.1847 16.8219 29.894 17.3105C29.6034 17.7992 29.2137 18.1888 28.7251 18.4795C28.2427 18.7702 27.7139 18.9155 27.1387 18.9155Z" fill="white" fill-opacity="0.96"/>
</g>
<defs>
<clipPath id="clip0_1_1059">
<rect x="0.5" width="44" height="44" rx="22" fill="white"/>
</clipPath>
</defs>
</svg>
