<svg width="16" height="16" viewBox="0 0 16 16" fill="none" xmlns="http://www.w3.org/2000/svg">
<path d="M2.47998 15.5107C2.01514 15.5107 1.6499 15.4056 1.38428 15.1953C1.11865 14.985 0.98584 14.6973 0.98584 14.332C0.98584 13.7952 1.14632 13.2336 1.46729 12.647C1.79378 12.0604 2.26139 11.5098 2.87012 10.9951C3.48437 10.4805 4.22314 10.0627 5.08643 9.7417C5.94971 9.42074 6.91813 9.26025 7.9917 9.26025C9.0708 9.26025 10.042 9.42074 10.9053 9.7417C11.7686 10.0627 12.5046 10.4805 13.1133 10.9951C13.7275 11.5098 14.1979 12.0604 14.5244 12.647C14.8509 13.2336 15.0142 13.7952 15.0142 14.332C15.0142 14.6973 14.8813 14.985 14.6157 15.1953C14.3501 15.4056 13.9849 15.5107 13.52 15.5107L2.47998 15.5107ZM8 7.78271C7.39681 7.78271 6.84066 7.61947 6.33154 7.29297C5.82796 6.96647 5.42122 6.52653 5.11133 5.97314C4.80697 5.41976 4.65479 4.79997 4.65479 4.11377C4.65479 3.43864 4.80697 2.82992 5.11133 2.2876C5.42122 1.73975 5.83073 1.30534 6.33984 0.984375C6.84896 0.663412 7.40234 0.50293 8 0.50293C8.60319 0.50293 9.15934 0.660645 9.66846 0.976074C10.1776 1.2915 10.5843 1.72314 10.8887 2.271C11.1986 2.81331 11.3535 3.42204 11.3535 4.09717C11.3535 4.7889 11.1986 5.41423 10.8887 5.97314C10.5843 6.52653 10.1776 6.96647 9.66846 7.29297C9.15934 7.61947 8.60319 7.78271 8 7.78271Z" fill="white" fill-opacity="0.23" style="mix-blend-mode:lighten"/>
<path d="M2.47998 15.5107C2.01514 15.5107 1.6499 15.4056 1.38428 15.1953C1.11865 14.985 0.98584 14.6973 0.98584 14.332C0.98584 13.7952 1.14632 13.2336 1.46729 12.647C1.79378 12.0604 2.26139 11.5098 2.87012 10.9951C3.48437 10.4805 4.22314 10.0627 5.08643 9.7417C5.94971 9.42074 6.91813 9.26025 7.9917 9.26025C9.0708 9.26025 10.042 9.42074 10.9053 9.7417C11.7686 10.0627 12.5046 10.4805 13.1133 10.9951C13.7275 11.5098 14.1979 12.0604 14.5244 12.647C14.8509 13.2336 15.0142 13.7952 15.0142 14.332C15.0142 14.6973 14.8813 14.985 14.6157 15.1953C14.3501 15.4056 13.9849 15.5107 13.52 15.5107L2.47998 15.5107ZM8 7.78271C7.39681 7.78271 6.84066 7.61947 6.33154 7.29297C5.82796 6.96647 5.42122 6.52653 5.11133 5.97314C4.80697 5.41976 4.65479 4.79997 4.65479 4.11377C4.65479 3.43864 4.80697 2.82992 5.11133 2.2876C5.42122 1.73975 5.83073 1.30534 6.33984 0.984375C6.84896 0.663412 7.40234 0.50293 8 0.50293C8.60319 0.50293 9.15934 0.660645 9.66846 0.976074C10.1776 1.2915 10.5843 1.72314 10.8887 2.271C11.1986 2.81331 11.3535 3.42204 11.3535 4.09717C11.3535 4.7889 11.1986 5.41423 10.8887 5.97314C10.5843 6.52653 10.1776 6.96647 9.66846 7.29297C9.15934 7.61947 8.60319 7.78271 8 7.78271Z" fill="#545454" style="mix-blend-mode:color-dodge"/>
</svg>
