<svg width="22" height="16" viewBox="0 0 22 16" fill="none" xmlns="http://www.w3.org/2000/svg">
<path d="M0.316895 14.4565V9.41797C0.316895 8.59342 0.538249 7.96257 0.980957 7.52539C1.42367 7.08822 2.05729 6.86963 2.88184 6.86963H19.1182C19.9482 6.86963 20.5819 7.08822 21.019 7.52539C21.4618 7.96257 21.6831 8.59342 21.6831 9.41797V14.4565C21.6831 14.6779 21.6167 14.8522 21.4839 14.9795C21.3511 15.1123 21.174 15.1787 20.9526 15.1787H20.438C20.2222 15.1787 20.0451 15.1123 19.9067 14.9795C19.7739 14.8522 19.7075 14.6779 19.7075 14.4565V13.2529C19.6632 13.264 19.5775 13.2751 19.4502 13.2861C19.3285 13.2972 19.215 13.3027 19.1099 13.3027H2.89014C2.77946 13.3027 2.66325 13.2972 2.5415 13.2861C2.42529 13.2751 2.34229 13.264 2.29248 13.2529V14.4565C2.29248 14.6779 2.22331 14.8522 2.08496 14.9795C1.95215 15.1123 1.77783 15.1787 1.56201 15.1787H1.04736C0.826009 15.1787 0.648926 15.1123 0.516113 14.9795C0.383301 14.8522 0.316895 14.6779 0.316895 14.4565ZM2.36719 5.59961V3.21729C2.36719 2.42594 2.57194 1.83105 2.98145 1.43262C3.39095 1.02865 3.98307 0.82666 4.75781 0.82666H17.2588C18.028 0.82666 18.6174 1.02865 19.0269 1.43262C19.4419 1.83105 19.6494 2.42594 19.6494 3.21729V5.59961H17.4746V4.4458C17.4746 4.04736 17.3639 3.743 17.1426 3.53271C16.9268 3.32243 16.6086 3.21729 16.188 3.21729H13.2661C12.8455 3.21729 12.5246 3.32243 12.3032 3.53271C12.0874 3.743 11.9795 4.04736 11.9795 4.4458V5.59961H10.1118V4.4458C10.1118 4.04736 10.0039 3.743 9.78809 3.53271C9.5778 3.32243 9.27067 3.21729 8.8667 3.21729H5.78711C5.38314 3.21729 5.07324 3.32243 4.85742 3.53271C4.6416 3.743 4.53369 4.04736 4.53369 4.4458V5.59961H2.36719Z" fill="white" fill-opacity="0.23" style="mix-blend-mode:lighten"/>
<path d="M0.316895 14.4565V9.41797C0.316895 8.59342 0.538249 7.96257 0.980957 7.52539C1.42367 7.08822 2.05729 6.86963 2.88184 6.86963H19.1182C19.9482 6.86963 20.5819 7.08822 21.019 7.52539C21.4618 7.96257 21.6831 8.59342 21.6831 9.41797V14.4565C21.6831 14.6779 21.6167 14.8522 21.4839 14.9795C21.3511 15.1123 21.174 15.1787 20.9526 15.1787H20.438C20.2222 15.1787 20.0451 15.1123 19.9067 14.9795C19.7739 14.8522 19.7075 14.6779 19.7075 14.4565V13.2529C19.6632 13.264 19.5775 13.2751 19.4502 13.2861C19.3285 13.2972 19.215 13.3027 19.1099 13.3027H2.89014C2.77946 13.3027 2.66325 13.2972 2.5415 13.2861C2.42529 13.2751 2.34229 13.264 2.29248 13.2529V14.4565C2.29248 14.6779 2.22331 14.8522 2.08496 14.9795C1.95215 15.1123 1.77783 15.1787 1.56201 15.1787H1.04736C0.826009 15.1787 0.648926 15.1123 0.516113 14.9795C0.383301 14.8522 0.316895 14.6779 0.316895 14.4565ZM2.36719 5.59961V3.21729C2.36719 2.42594 2.57194 1.83105 2.98145 1.43262C3.39095 1.02865 3.98307 0.82666 4.75781 0.82666H17.2588C18.028 0.82666 18.6174 1.02865 19.0269 1.43262C19.4419 1.83105 19.6494 2.42594 19.6494 3.21729V5.59961H17.4746V4.4458C17.4746 4.04736 17.3639 3.743 17.1426 3.53271C16.9268 3.32243 16.6086 3.21729 16.188 3.21729H13.2661C12.8455 3.21729 12.5246 3.32243 12.3032 3.53271C12.0874 3.743 11.9795 4.04736 11.9795 4.4458V5.59961H10.1118V4.4458C10.1118 4.04736 10.0039 3.743 9.78809 3.53271C9.5778 3.32243 9.27067 3.21729 8.8667 3.21729H5.78711C5.38314 3.21729 5.07324 3.32243 4.85742 3.53271C4.6416 3.743 4.53369 4.04736 4.53369 4.4458V5.59961H2.36719Z" fill="#545454" style="mix-blend-mode:color-dodge"/>
</svg>
