<svg width="320" height="56" viewBox="0 0 320 56" fill="none" xmlns="http://www.w3.org/2000/svg">
<path d="M22.5293 26.2051C21.748 26.2051 21.0703 26.0254 20.4961 25.666C19.9258 25.3066 19.4863 24.7969 19.1777 24.1367C18.8691 23.4766 18.7148 22.6914 18.7148 21.7812V21.7695C18.7148 20.8555 18.8691 20.0684 19.1777 19.4082C19.4863 18.748 19.9258 18.2383 20.4961 17.8789C21.0664 17.5195 21.7441 17.3398 22.5293 17.3398C23.1504 17.3398 23.7109 17.4629 24.2109 17.709C24.7148 17.9512 25.127 18.2871 25.4473 18.7168C25.7715 19.1465 25.9688 19.6406 26.0391 20.1992V20.2344H24.7324L24.7266 20.2109C24.6484 19.8633 24.5059 19.5625 24.2988 19.3086C24.0918 19.0547 23.8379 18.8574 23.5371 18.7168C23.2363 18.5762 22.9004 18.5059 22.5293 18.5059C22.0254 18.5059 21.5879 18.6387 21.2168 18.9043C20.8496 19.1699 20.5645 19.5469 20.3613 20.0352C20.1621 20.5195 20.0625 21.0977 20.0625 21.7695V21.7812C20.0625 22.4453 20.1621 23.0215 20.3613 23.5098C20.5645 23.998 20.8496 24.375 21.2168 24.6406C21.5879 24.9062 22.0273 25.0391 22.5352 25.0391C22.9062 25.0391 23.2422 24.9766 23.543 24.8516C23.8477 24.7266 24.1016 24.5488 24.3047 24.3184C24.5078 24.084 24.6465 23.8086 24.7207 23.4922L24.7324 23.4688H26.0449L26.0391 23.498C25.957 24.041 25.7578 24.5156 25.4414 24.9219C25.125 25.3281 24.7188 25.6445 24.2227 25.8711C23.7266 26.0938 23.1621 26.2051 22.5293 26.2051ZM26.8711 26L29.9238 17.5449H30.9844V19.0273H30.5859L28.2539 26H26.8711ZM28.3418 23.7148L28.7109 22.6602H32.5605L32.9297 23.7148H28.3418ZM33.0117 26L30.6855 19.0273V17.5449H31.3477L34.3945 26H33.0117ZM41.9707 25.877C41.4199 25.877 40.916 25.7852 40.459 25.6016C40.0059 25.4141 39.6406 25.1445 39.3633 24.793C39.0859 24.4375 38.9375 24.0098 38.918 23.5098V23.5039L40.1367 23.498V23.5098C40.1758 23.7598 40.2656 23.9844 40.4062 24.1836C40.5469 24.3828 40.7461 24.5391 41.0039 24.6523C41.2617 24.7617 41.5898 24.8164 41.9883 24.8164C42.3945 24.8164 42.7246 24.7656 42.9785 24.6641C43.2324 24.5586 43.418 24.416 43.5352 24.2363C43.6562 24.0566 43.7168 23.8535 43.7168 23.627V23.6152C43.7168 23.3145 43.6152 23.0684 43.4121 22.877C43.209 22.6855 42.8262 22.5234 42.2637 22.3906L41.3906 22.1855C40.8984 22.0684 40.4824 21.9141 40.1426 21.7227C39.8027 21.5273 39.543 21.2871 39.3633 21.002C39.1875 20.7168 39.0996 20.377 39.0996 19.9824V19.9707C39.0996 19.498 39.2246 19.0898 39.4746 18.7461C39.7246 18.4023 40.0645 18.1367 40.4941 17.9492C40.9277 17.7617 41.4199 17.668 41.9707 17.668C42.5137 17.668 43 17.7656 43.4297 17.9609C43.8594 18.1562 44.2012 18.4297 44.4551 18.7812C44.7129 19.1328 44.8516 19.5469 44.8711 20.0234L44.8652 20.0293L43.6523 20.0352V20.0234C43.625 19.7461 43.5352 19.5117 43.3828 19.3203C43.2344 19.1289 43.0391 18.9824 42.7969 18.8809C42.5547 18.7793 42.2812 18.7285 41.9766 18.7285C41.6211 18.7285 41.3223 18.7832 41.0801 18.8926C40.8379 18.998 40.6543 19.1387 40.5293 19.3145C40.4082 19.4863 40.3477 19.6738 40.3477 19.877V19.8887C40.3477 20.0684 40.3926 20.2324 40.4824 20.3809C40.5723 20.5254 40.7148 20.6543 40.9102 20.7676C41.1094 20.8809 41.375 20.9766 41.707 21.0547L42.5801 21.2598C43.3535 21.4395 43.9434 21.7031 44.3496 22.0508C44.7598 22.3945 44.9648 22.877 44.9648 23.498V23.5098C44.9648 24.0215 44.8281 24.4531 44.5547 24.8047C44.2852 25.1562 43.9238 25.4238 43.4707 25.6074C43.0176 25.7871 42.5176 25.877 41.9707 25.877ZM41.6191 26.8438V16.6953H42.3164V26.8438H41.6191ZM49.7168 26.2051C49.0645 26.2051 48.5059 26.0254 48.041 25.666C47.5762 25.3066 47.2188 24.7969 46.9688 24.1367C46.7188 23.4727 46.5938 22.6855 46.5938 21.7754V21.7637C46.5938 20.8535 46.7188 20.0684 46.9688 19.4082C47.2188 18.748 47.5762 18.2383 48.041 17.8789C48.5059 17.5195 49.0645 17.3398 49.7168 17.3398C50.3691 17.3398 50.9277 17.5195 51.3926 17.8789C51.8574 18.2383 52.2148 18.748 52.4648 19.4082C52.7188 20.0684 52.8457 20.8535 52.8457 21.7637V21.7754C52.8457 22.6855 52.7188 23.4727 52.4648 24.1367C52.2148 24.7969 51.8574 25.3066 51.3926 25.666C50.9277 26.0254 50.3691 26.2051 49.7168 26.2051ZM49.7168 25.1094C50.0957 25.1094 50.418 24.9746 50.6836 24.7051C50.9531 24.4355 51.1582 24.0527 51.2988 23.5566C51.4434 23.0566 51.5156 22.4629 51.5156 21.7754V21.7637C51.5156 21.0762 51.4434 20.4844 51.2988 19.9883C51.1582 19.4922 50.9531 19.1113 50.6836 18.8457C50.418 18.5762 50.0957 18.4414 49.7168 18.4414C49.3418 18.4414 49.0195 18.5762 48.75 18.8457C48.4844 19.1113 48.2793 19.4922 48.1348 19.9883C47.9941 20.4844 47.9238 21.0762 47.9238 21.7637V21.7754C47.9238 22.4629 47.9941 23.0566 48.1348 23.5566C48.2793 24.0527 48.4844 24.4355 48.75 24.7051C49.0195 24.9746 49.3418 25.1094 49.7168 25.1094Z" fill="white" fill-opacity="0.23" style="mix-blend-mode:lighten"/>
<path d="M22.5293 26.2051C21.748 26.2051 21.0703 26.0254 20.4961 25.666C19.9258 25.3066 19.4863 24.7969 19.1777 24.1367C18.8691 23.4766 18.7148 22.6914 18.7148 21.7812V21.7695C18.7148 20.8555 18.8691 20.0684 19.1777 19.4082C19.4863 18.748 19.9258 18.2383 20.4961 17.8789C21.0664 17.5195 21.7441 17.3398 22.5293 17.3398C23.1504 17.3398 23.7109 17.4629 24.2109 17.709C24.7148 17.9512 25.127 18.2871 25.4473 18.7168C25.7715 19.1465 25.9688 19.6406 26.0391 20.1992V20.2344H24.7324L24.7266 20.2109C24.6484 19.8633 24.5059 19.5625 24.2988 19.3086C24.0918 19.0547 23.8379 18.8574 23.5371 18.7168C23.2363 18.5762 22.9004 18.5059 22.5293 18.5059C22.0254 18.5059 21.5879 18.6387 21.2168 18.9043C20.8496 19.1699 20.5645 19.5469 20.3613 20.0352C20.1621 20.5195 20.0625 21.0977 20.0625 21.7695V21.7812C20.0625 22.4453 20.1621 23.0215 20.3613 23.5098C20.5645 23.998 20.8496 24.375 21.2168 24.6406C21.5879 24.9062 22.0273 25.0391 22.5352 25.0391C22.9062 25.0391 23.2422 24.9766 23.543 24.8516C23.8477 24.7266 24.1016 24.5488 24.3047 24.3184C24.5078 24.084 24.6465 23.8086 24.7207 23.4922L24.7324 23.4688H26.0449L26.0391 23.498C25.957 24.041 25.7578 24.5156 25.4414 24.9219C25.125 25.3281 24.7188 25.6445 24.2227 25.8711C23.7266 26.0938 23.1621 26.2051 22.5293 26.2051ZM26.8711 26L29.9238 17.5449H30.9844V19.0273H30.5859L28.2539 26H26.8711ZM28.3418 23.7148L28.7109 22.6602H32.5605L32.9297 23.7148H28.3418ZM33.0117 26L30.6855 19.0273V17.5449H31.3477L34.3945 26H33.0117ZM41.9707 25.877C41.4199 25.877 40.916 25.7852 40.459 25.6016C40.0059 25.4141 39.6406 25.1445 39.3633 24.793C39.0859 24.4375 38.9375 24.0098 38.918 23.5098V23.5039L40.1367 23.498V23.5098C40.1758 23.7598 40.2656 23.9844 40.4062 24.1836C40.5469 24.3828 40.7461 24.5391 41.0039 24.6523C41.2617 24.7617 41.5898 24.8164 41.9883 24.8164C42.3945 24.8164 42.7246 24.7656 42.9785 24.6641C43.2324 24.5586 43.418 24.416 43.5352 24.2363C43.6562 24.0566 43.7168 23.8535 43.7168 23.627V23.6152C43.7168 23.3145 43.6152 23.0684 43.4121 22.877C43.209 22.6855 42.8262 22.5234 42.2637 22.3906L41.3906 22.1855C40.8984 22.0684 40.4824 21.9141 40.1426 21.7227C39.8027 21.5273 39.543 21.2871 39.3633 21.002C39.1875 20.7168 39.0996 20.377 39.0996 19.9824V19.9707C39.0996 19.498 39.2246 19.0898 39.4746 18.7461C39.7246 18.4023 40.0645 18.1367 40.4941 17.9492C40.9277 17.7617 41.4199 17.668 41.9707 17.668C42.5137 17.668 43 17.7656 43.4297 17.9609C43.8594 18.1562 44.2012 18.4297 44.4551 18.7812C44.7129 19.1328 44.8516 19.5469 44.8711 20.0234L44.8652 20.0293L43.6523 20.0352V20.0234C43.625 19.7461 43.5352 19.5117 43.3828 19.3203C43.2344 19.1289 43.0391 18.9824 42.7969 18.8809C42.5547 18.7793 42.2812 18.7285 41.9766 18.7285C41.6211 18.7285 41.3223 18.7832 41.0801 18.8926C40.8379 18.998 40.6543 19.1387 40.5293 19.3145C40.4082 19.4863 40.3477 19.6738 40.3477 19.877V19.8887C40.3477 20.0684 40.3926 20.2324 40.4824 20.3809C40.5723 20.5254 40.7148 20.6543 40.9102 20.7676C41.1094 20.8809 41.375 20.9766 41.707 21.0547L42.5801 21.2598C43.3535 21.4395 43.9434 21.7031 44.3496 22.0508C44.7598 22.3945 44.9648 22.877 44.9648 23.498V23.5098C44.9648 24.0215 44.8281 24.4531 44.5547 24.8047C44.2852 25.1562 43.9238 25.4238 43.4707 25.6074C43.0176 25.7871 42.5176 25.877 41.9707 25.877ZM41.6191 26.8438V16.6953H42.3164V26.8438H41.6191ZM49.7168 26.2051C49.0645 26.2051 48.5059 26.0254 48.041 25.666C47.5762 25.3066 47.2188 24.7969 46.9688 24.1367C46.7188 23.4727 46.5938 22.6855 46.5938 21.7754V21.7637C46.5938 20.8535 46.7188 20.0684 46.9688 19.4082C47.2188 18.748 47.5762 18.2383 48.041 17.8789C48.5059 17.5195 49.0645 17.3398 49.7168 17.3398C50.3691 17.3398 50.9277 17.5195 51.3926 17.8789C51.8574 18.2383 52.2148 18.748 52.4648 19.4082C52.7188 20.0684 52.8457 20.8535 52.8457 21.7637V21.7754C52.8457 22.6855 52.7188 23.4727 52.4648 24.1367C52.2148 24.7969 51.8574 25.3066 51.3926 25.666C50.9277 26.0254 50.3691 26.2051 49.7168 26.2051ZM49.7168 25.1094C50.0957 25.1094 50.418 24.9746 50.6836 24.7051C50.9531 24.4355 51.1582 24.0527 51.2988 23.5566C51.4434 23.0566 51.5156 22.4629 51.5156 21.7754V21.7637C51.5156 21.0762 51.4434 20.4844 51.2988 19.9883C51.1582 19.4922 50.9531 19.1113 50.6836 18.8457C50.418 18.5762 50.0957 18.4414 49.7168 18.4414C49.3418 18.4414 49.0195 18.5762 48.75 18.8457C48.4844 19.1113 48.2793 19.4922 48.1348 19.9883C47.9941 20.4844 47.9238 21.0762 47.9238 21.7637V21.7754C47.9238 22.4629 47.9941 23.0566 48.1348 23.5566C48.2793 24.0527 48.4844 24.4355 48.75 24.7051C49.0195 24.9746 49.3418 25.1094 49.7168 25.1094Z" fill="#545454" style="mix-blend-mode:color-dodge"/>
<path d="M251.529 26.2051C250.748 26.2051 250.07 26.0254 249.496 25.666C248.926 25.3066 248.486 24.7969 248.178 24.1367C247.869 23.4766 247.715 22.6914 247.715 21.7812V21.7695C247.715 20.8555 247.869 20.0684 248.178 19.4082C248.486 18.748 248.926 18.2383 249.496 17.8789C250.066 17.5195 250.744 17.3398 251.529 17.3398C252.15 17.3398 252.711 17.4629 253.211 17.709C253.715 17.9512 254.127 18.2871 254.447 18.7168C254.771 19.1465 254.969 19.6406 255.039 20.1992V20.2344H253.732L253.727 20.2109C253.648 19.8633 253.506 19.5625 253.299 19.3086C253.092 19.0547 252.838 18.8574 252.537 18.7168C252.236 18.5762 251.9 18.5059 251.529 18.5059C251.025 18.5059 250.588 18.6387 250.217 18.9043C249.85 19.1699 249.564 19.5469 249.361 20.0352C249.162 20.5195 249.062 21.0977 249.062 21.7695V21.7812C249.062 22.4453 249.162 23.0215 249.361 23.5098C249.564 23.998 249.85 24.375 250.217 24.6406C250.588 24.9062 251.027 25.0391 251.535 25.0391C251.906 25.0391 252.242 24.9766 252.543 24.8516C252.848 24.7266 253.102 24.5488 253.305 24.3184C253.508 24.084 253.646 23.8086 253.721 23.4922L253.732 23.4688H255.045L255.039 23.498C254.957 24.041 254.758 24.5156 254.441 24.9219C254.125 25.3281 253.719 25.6445 253.223 25.8711C252.727 26.0938 252.162 26.2051 251.529 26.2051ZM255.871 26L258.924 17.5449H259.984V19.0273H259.586L257.254 26H255.871ZM257.342 23.7148L257.711 22.6602H261.561L261.93 23.7148H257.342ZM262.012 26L259.686 19.0273V17.5449H260.348L263.395 26H262.012ZM267.701 25.877C267.15 25.877 266.646 25.7852 266.189 25.6016C265.736 25.4141 265.371 25.1445 265.094 24.793C264.816 24.4375 264.668 24.0098 264.648 23.5098V23.5039L265.867 23.498V23.5098C265.906 23.7598 265.996 23.9844 266.137 24.1836C266.277 24.3828 266.477 24.5391 266.734 24.6523C266.992 24.7617 267.32 24.8164 267.719 24.8164C268.125 24.8164 268.455 24.7656 268.709 24.6641C268.963 24.5586 269.148 24.416 269.266 24.2363C269.387 24.0566 269.447 23.8535 269.447 23.627V23.6152C269.447 23.3145 269.346 23.0684 269.143 22.877C268.939 22.6855 268.557 22.5234 267.994 22.3906L267.121 22.1855C266.629 22.0684 266.213 21.9141 265.873 21.7227C265.533 21.5273 265.273 21.2871 265.094 21.002C264.918 20.7168 264.83 20.377 264.83 19.9824V19.9707C264.83 19.498 264.955 19.0898 265.205 18.7461C265.455 18.4023 265.795 18.1367 266.225 17.9492C266.658 17.7617 267.15 17.668 267.701 17.668C268.244 17.668 268.73 17.7656 269.16 17.9609C269.59 18.1562 269.932 18.4297 270.186 18.7812C270.443 19.1328 270.582 19.5469 270.602 20.0234L270.596 20.0293L269.383 20.0352V20.0234C269.355 19.7461 269.266 19.5117 269.113 19.3203C268.965 19.1289 268.77 18.9824 268.527 18.8809C268.285 18.7793 268.012 18.7285 267.707 18.7285C267.352 18.7285 267.053 18.7832 266.811 18.8926C266.568 18.998 266.385 19.1387 266.26 19.3145C266.139 19.4863 266.078 19.6738 266.078 19.877V19.8887C266.078 20.0684 266.123 20.2324 266.213 20.3809C266.303 20.5254 266.445 20.6543 266.641 20.7676C266.84 20.8809 267.105 20.9766 267.438 21.0547L268.311 21.2598C269.084 21.4395 269.674 21.7031 270.08 22.0508C270.49 22.3945 270.695 22.877 270.695 23.498V23.5098C270.695 24.0215 270.559 24.4531 270.285 24.8047C270.016 25.1562 269.654 25.4238 269.201 25.6074C268.748 25.7871 268.248 25.877 267.701 25.877ZM267.35 26.8438V16.6953H268.047V26.8438H267.35ZM275.588 26.2051C275.162 26.2051 274.752 26.127 274.357 25.9707C273.967 25.8105 273.615 25.5605 273.303 25.2207C272.994 24.877 272.748 24.4316 272.564 23.8848C272.385 23.3379 272.295 22.6758 272.295 21.8984V21.8867C272.295 20.9336 272.428 20.1191 272.693 19.4434C272.959 18.7637 273.342 18.2441 273.842 17.8848C274.342 17.5215 274.939 17.3398 275.635 17.3398C276.135 17.3398 276.586 17.4316 276.988 17.6152C277.391 17.7988 277.725 18.0527 277.99 18.377C278.256 18.6973 278.434 19.0703 278.523 19.4961L278.541 19.5664H277.234L277.211 19.5078C277.133 19.2891 277.02 19.1035 276.871 18.9512C276.727 18.7949 276.549 18.6738 276.338 18.5879C276.131 18.498 275.895 18.4531 275.629 18.4531C275.156 18.4531 274.77 18.5938 274.469 18.875C274.172 19.1523 273.951 19.5234 273.807 19.9883C273.662 20.4531 273.578 20.9648 273.555 21.5234C273.551 21.5781 273.549 21.6328 273.549 21.6875C273.549 21.7422 273.549 21.7969 273.549 21.8516L273.801 23.2637C273.801 23.6074 273.879 23.918 274.035 24.1953C274.195 24.4727 274.41 24.6934 274.68 24.8574C274.949 25.0215 275.248 25.1035 275.576 25.1035C275.908 25.1035 276.207 25.0234 276.473 24.8633C276.742 24.7031 276.955 24.4863 277.111 24.2129C277.271 23.9395 277.352 23.6348 277.352 23.2988V23.2871C277.352 22.9395 277.275 22.6328 277.123 22.3672C276.975 22.0977 276.768 21.8867 276.502 21.7344C276.236 21.5781 275.934 21.5 275.594 21.5C275.258 21.5 274.953 21.5762 274.68 21.7285C274.41 21.8809 274.195 22.0898 274.035 22.3555C273.879 22.6172 273.801 22.918 273.801 23.2578V23.2637H273.455V21.7227H273.66C273.766 21.4961 273.918 21.2852 274.117 21.0898C274.32 20.8945 274.57 20.7383 274.867 20.6211C275.164 20.5 275.504 20.4395 275.887 20.4395C276.426 20.4395 276.902 20.5625 277.316 20.8086C277.734 21.0508 278.061 21.3828 278.295 21.8047C278.533 22.2266 278.652 22.709 278.652 23.252V23.2637C278.652 23.8301 278.52 24.3359 278.254 24.7812C277.992 25.2227 277.631 25.5703 277.17 25.8242C276.709 26.0781 276.182 26.2051 275.588 26.2051ZM283.299 26.2051C282.646 26.2051 282.088 26.0254 281.623 25.666C281.158 25.3066 280.801 24.7969 280.551 24.1367C280.301 23.4727 280.176 22.6855 280.176 21.7754V21.7637C280.176 20.8535 280.301 20.0684 280.551 19.4082C280.801 18.748 281.158 18.2383 281.623 17.8789C282.088 17.5195 282.646 17.3398 283.299 17.3398C283.951 17.3398 284.51 17.5195 284.975 17.8789C285.439 18.2383 285.797 18.748 286.047 19.4082C286.301 20.0684 286.428 20.8535 286.428 21.7637V21.7754C286.428 22.6855 286.301 23.4727 286.047 24.1367C285.797 24.7969 285.439 25.3066 284.975 25.666C284.51 26.0254 283.951 26.2051 283.299 26.2051ZM283.299 25.1094C283.678 25.1094 284 24.9746 284.266 24.7051C284.535 24.4355 284.74 24.0527 284.881 23.5566C285.025 23.0566 285.098 22.4629 285.098 21.7754V21.7637C285.098 21.0762 285.025 20.4844 284.881 19.9883C284.74 19.4922 284.535 19.1113 284.266 18.8457C284 18.5762 283.678 18.4414 283.299 18.4414C282.924 18.4414 282.602 18.5762 282.332 18.8457C282.066 19.1113 281.861 19.4922 281.717 19.9883C281.576 20.4844 281.506 21.0762 281.506 21.7637V21.7754C281.506 22.4629 281.576 23.0566 281.717 23.5566C281.861 24.0527 282.066 24.4355 282.332 24.7051C282.602 24.9746 282.924 25.1094 283.299 25.1094ZM291.104 26.2051C290.451 26.2051 289.893 26.0254 289.428 25.666C288.963 25.3066 288.605 24.7969 288.355 24.1367C288.105 23.4727 287.98 22.6855 287.98 21.7754V21.7637C287.98 20.8535 288.105 20.0684 288.355 19.4082C288.605 18.748 288.963 18.2383 289.428 17.8789C289.893 17.5195 290.451 17.3398 291.104 17.3398C291.756 17.3398 292.314 17.5195 292.779 17.8789C293.244 18.2383 293.602 18.748 293.852 19.4082C294.105 20.0684 294.232 20.8535 294.232 21.7637V21.7754C294.232 22.6855 294.105 23.4727 293.852 24.1367C293.602 24.7969 293.244 25.3066 292.779 25.666C292.314 26.0254 291.756 26.2051 291.104 26.2051ZM291.104 25.1094C291.482 25.1094 291.805 24.9746 292.07 24.7051C292.34 24.4355 292.545 24.0527 292.686 23.5566C292.83 23.0566 292.902 22.4629 292.902 21.7754V21.7637C292.902 21.0762 292.83 20.4844 292.686 19.9883C292.545 19.4922 292.34 19.1113 292.07 18.8457C291.805 18.5762 291.482 18.4414 291.104 18.4414C290.729 18.4414 290.406 18.5762 290.137 18.8457C289.871 19.1113 289.666 19.4922 289.521 19.9883C289.381 20.4844 289.311 21.0762 289.311 21.7637V21.7754C289.311 22.4629 289.381 23.0566 289.521 23.5566C289.666 24.0527 289.871 24.4355 290.137 24.7051C290.406 24.9746 290.729 25.1094 291.104 25.1094ZM295.709 23.1758V22.0098H302.055V23.1758H295.709ZM298.299 25.7773V19.4082H299.465V25.7773H298.299Z" fill="white" fill-opacity="0.23" style="mix-blend-mode:lighten"/>
<path d="M251.529 26.2051C250.748 26.2051 250.07 26.0254 249.496 25.666C248.926 25.3066 248.486 24.7969 248.178 24.1367C247.869 23.4766 247.715 22.6914 247.715 21.7812V21.7695C247.715 20.8555 247.869 20.0684 248.178 19.4082C248.486 18.748 248.926 18.2383 249.496 17.8789C250.066 17.5195 250.744 17.3398 251.529 17.3398C252.15 17.3398 252.711 17.4629 253.211 17.709C253.715 17.9512 254.127 18.2871 254.447 18.7168C254.771 19.1465 254.969 19.6406 255.039 20.1992V20.2344H253.732L253.727 20.2109C253.648 19.8633 253.506 19.5625 253.299 19.3086C253.092 19.0547 252.838 18.8574 252.537 18.7168C252.236 18.5762 251.9 18.5059 251.529 18.5059C251.025 18.5059 250.588 18.6387 250.217 18.9043C249.85 19.1699 249.564 19.5469 249.361 20.0352C249.162 20.5195 249.062 21.0977 249.062 21.7695V21.7812C249.062 22.4453 249.162 23.0215 249.361 23.5098C249.564 23.998 249.85 24.375 250.217 24.6406C250.588 24.9062 251.027 25.0391 251.535 25.0391C251.906 25.0391 252.242 24.9766 252.543 24.8516C252.848 24.7266 253.102 24.5488 253.305 24.3184C253.508 24.084 253.646 23.8086 253.721 23.4922L253.732 23.4688H255.045L255.039 23.498C254.957 24.041 254.758 24.5156 254.441 24.9219C254.125 25.3281 253.719 25.6445 253.223 25.8711C252.727 26.0938 252.162 26.2051 251.529 26.2051ZM255.871 26L258.924 17.5449H259.984V19.0273H259.586L257.254 26H255.871ZM257.342 23.7148L257.711 22.6602H261.561L261.93 23.7148H257.342ZM262.012 26L259.686 19.0273V17.5449H260.348L263.395 26H262.012ZM267.701 25.877C267.15 25.877 266.646 25.7852 266.189 25.6016C265.736 25.4141 265.371 25.1445 265.094 24.793C264.816 24.4375 264.668 24.0098 264.648 23.5098V23.5039L265.867 23.498V23.5098C265.906 23.7598 265.996 23.9844 266.137 24.1836C266.277 24.3828 266.477 24.5391 266.734 24.6523C266.992 24.7617 267.32 24.8164 267.719 24.8164C268.125 24.8164 268.455 24.7656 268.709 24.6641C268.963 24.5586 269.148 24.416 269.266 24.2363C269.387 24.0566 269.447 23.8535 269.447 23.627V23.6152C269.447 23.3145 269.346 23.0684 269.143 22.877C268.939 22.6855 268.557 22.5234 267.994 22.3906L267.121 22.1855C266.629 22.0684 266.213 21.9141 265.873 21.7227C265.533 21.5273 265.273 21.2871 265.094 21.002C264.918 20.7168 264.83 20.377 264.83 19.9824V19.9707C264.83 19.498 264.955 19.0898 265.205 18.7461C265.455 18.4023 265.795 18.1367 266.225 17.9492C266.658 17.7617 267.15 17.668 267.701 17.668C268.244 17.668 268.73 17.7656 269.16 17.9609C269.59 18.1562 269.932 18.4297 270.186 18.7812C270.443 19.1328 270.582 19.5469 270.602 20.0234L270.596 20.0293L269.383 20.0352V20.0234C269.355 19.7461 269.266 19.5117 269.113 19.3203C268.965 19.1289 268.77 18.9824 268.527 18.8809C268.285 18.7793 268.012 18.7285 267.707 18.7285C267.352 18.7285 267.053 18.7832 266.811 18.8926C266.568 18.998 266.385 19.1387 266.26 19.3145C266.139 19.4863 266.078 19.6738 266.078 19.877V19.8887C266.078 20.0684 266.123 20.2324 266.213 20.3809C266.303 20.5254 266.445 20.6543 266.641 20.7676C266.84 20.8809 267.105 20.9766 267.438 21.0547L268.311 21.2598C269.084 21.4395 269.674 21.7031 270.08 22.0508C270.49 22.3945 270.695 22.877 270.695 23.498V23.5098C270.695 24.0215 270.559 24.4531 270.285 24.8047C270.016 25.1562 269.654 25.4238 269.201 25.6074C268.748 25.7871 268.248 25.877 267.701 25.877ZM267.35 26.8438V16.6953H268.047V26.8438H267.35ZM275.588 26.2051C275.162 26.2051 274.752 26.127 274.357 25.9707C273.967 25.8105 273.615 25.5605 273.303 25.2207C272.994 24.877 272.748 24.4316 272.564 23.8848C272.385 23.3379 272.295 22.6758 272.295 21.8984V21.8867C272.295 20.9336 272.428 20.1191 272.693 19.4434C272.959 18.7637 273.342 18.2441 273.842 17.8848C274.342 17.5215 274.939 17.3398 275.635 17.3398C276.135 17.3398 276.586 17.4316 276.988 17.6152C277.391 17.7988 277.725 18.0527 277.99 18.377C278.256 18.6973 278.434 19.0703 278.523 19.4961L278.541 19.5664H277.234L277.211 19.5078C277.133 19.2891 277.02 19.1035 276.871 18.9512C276.727 18.7949 276.549 18.6738 276.338 18.5879C276.131 18.498 275.895 18.4531 275.629 18.4531C275.156 18.4531 274.77 18.5938 274.469 18.875C274.172 19.1523 273.951 19.5234 273.807 19.9883C273.662 20.4531 273.578 20.9648 273.555 21.5234C273.551 21.5781 273.549 21.6328 273.549 21.6875C273.549 21.7422 273.549 21.7969 273.549 21.8516L273.801 23.2637C273.801 23.6074 273.879 23.918 274.035 24.1953C274.195 24.4727 274.41 24.6934 274.68 24.8574C274.949 25.0215 275.248 25.1035 275.576 25.1035C275.908 25.1035 276.207 25.0234 276.473 24.8633C276.742 24.7031 276.955 24.4863 277.111 24.2129C277.271 23.9395 277.352 23.6348 277.352 23.2988V23.2871C277.352 22.9395 277.275 22.6328 277.123 22.3672C276.975 22.0977 276.768 21.8867 276.502 21.7344C276.236 21.5781 275.934 21.5 275.594 21.5C275.258 21.5 274.953 21.5762 274.68 21.7285C274.41 21.8809 274.195 22.0898 274.035 22.3555C273.879 22.6172 273.801 22.918 273.801 23.2578V23.2637H273.455V21.7227H273.66C273.766 21.4961 273.918 21.2852 274.117 21.0898C274.32 20.8945 274.57 20.7383 274.867 20.6211C275.164 20.5 275.504 20.4395 275.887 20.4395C276.426 20.4395 276.902 20.5625 277.316 20.8086C277.734 21.0508 278.061 21.3828 278.295 21.8047C278.533 22.2266 278.652 22.709 278.652 23.252V23.2637C278.652 23.8301 278.52 24.3359 278.254 24.7812C277.992 25.2227 277.631 25.5703 277.17 25.8242C276.709 26.0781 276.182 26.2051 275.588 26.2051ZM283.299 26.2051C282.646 26.2051 282.088 26.0254 281.623 25.666C281.158 25.3066 280.801 24.7969 280.551 24.1367C280.301 23.4727 280.176 22.6855 280.176 21.7754V21.7637C280.176 20.8535 280.301 20.0684 280.551 19.4082C280.801 18.748 281.158 18.2383 281.623 17.8789C282.088 17.5195 282.646 17.3398 283.299 17.3398C283.951 17.3398 284.51 17.5195 284.975 17.8789C285.439 18.2383 285.797 18.748 286.047 19.4082C286.301 20.0684 286.428 20.8535 286.428 21.7637V21.7754C286.428 22.6855 286.301 23.4727 286.047 24.1367C285.797 24.7969 285.439 25.3066 284.975 25.666C284.51 26.0254 283.951 26.2051 283.299 26.2051ZM283.299 25.1094C283.678 25.1094 284 24.9746 284.266 24.7051C284.535 24.4355 284.74 24.0527 284.881 23.5566C285.025 23.0566 285.098 22.4629 285.098 21.7754V21.7637C285.098 21.0762 285.025 20.4844 284.881 19.9883C284.74 19.4922 284.535 19.1113 284.266 18.8457C284 18.5762 283.678 18.4414 283.299 18.4414C282.924 18.4414 282.602 18.5762 282.332 18.8457C282.066 19.1113 281.861 19.4922 281.717 19.9883C281.576 20.4844 281.506 21.0762 281.506 21.7637V21.7754C281.506 22.4629 281.576 23.0566 281.717 23.5566C281.861 24.0527 282.066 24.4355 282.332 24.7051C282.602 24.9746 282.924 25.1094 283.299 25.1094ZM291.104 26.2051C290.451 26.2051 289.893 26.0254 289.428 25.666C288.963 25.3066 288.605 24.7969 288.355 24.1367C288.105 23.4727 287.98 22.6855 287.98 21.7754V21.7637C287.98 20.8535 288.105 20.0684 288.355 19.4082C288.605 18.748 288.963 18.2383 289.428 17.8789C289.893 17.5195 290.451 17.3398 291.104 17.3398C291.756 17.3398 292.314 17.5195 292.779 17.8789C293.244 18.2383 293.602 18.748 293.852 19.4082C294.105 20.0684 294.232 20.8535 294.232 21.7637V21.7754C294.232 22.6855 294.105 23.4727 293.852 24.1367C293.602 24.7969 293.244 25.3066 292.779 25.666C292.314 26.0254 291.756 26.2051 291.104 26.2051ZM291.104 25.1094C291.482 25.1094 291.805 24.9746 292.07 24.7051C292.34 24.4355 292.545 24.0527 292.686 23.5566C292.83 23.0566 292.902 22.4629 292.902 21.7754V21.7637C292.902 21.0762 292.83 20.4844 292.686 19.9883C292.545 19.4922 292.34 19.1113 292.07 18.8457C291.805 18.5762 291.482 18.4414 291.104 18.4414C290.729 18.4414 290.406 18.5762 290.137 18.8457C289.871 19.1113 289.666 19.4922 289.521 19.9883C289.381 20.4844 289.311 21.0762 289.311 21.7637V21.7754C289.311 22.4629 289.381 23.0566 289.521 23.5566C289.666 24.0527 289.871 24.4355 290.137 24.7051C290.406 24.9746 290.729 25.1094 291.104 25.1094ZM295.709 23.1758V22.0098H302.055V23.1758H295.709ZM298.299 25.7773V19.4082H299.465V25.7773H298.299Z" fill="#545454" style="mix-blend-mode:color-dodge"/>
<g filter="url(#filter0_iiii_10_2438)">
<g clip-path="url(#clip0_10_2438)">
<rect x="16" y="33" width="288" height="12" rx="6" fill="#D0D0D0" fill-opacity="0.5" style="mix-blend-mode:color-burn"/>
<rect x="16" y="33" width="288" height="12" rx="6" fill="black" fill-opacity="0.1" style="mix-blend-mode:luminosity"/>
<g filter="url(#filter1_d_10_2438)">
<rect x="16" y="33" width="12" height="12" rx="6" fill="white" fill-opacity="0.6" shape-rendering="crispEdges"/>
</g>
</g>
</g>
<defs>
<filter id="filter0_iiii_10_2438" x="16" y="32.5" width="289" height="14" filterUnits="userSpaceOnUse" color-interpolation-filters="sRGB">
<feFlood flood-opacity="0" result="BackgroundImageFix"/>
<feBlend mode="normal" in="SourceGraphic" in2="BackgroundImageFix" result="shape"/>
<feColorMatrix in="SourceAlpha" type="matrix" values="0 0 0 0 0 0 0 0 0 0 0 0 0 0 0 0 0 0 127 0" result="hardAlpha"/>
<feOffset dx="1" dy="1.5"/>
<feGaussianBlur stdDeviation="2"/>
<feComposite in2="hardAlpha" operator="arithmetic" k2="-1" k3="1"/>
<feColorMatrix type="matrix" values="0 0 0 0 0 0 0 0 0 0 0 0 0 0 0 0 0 0 0.1 0"/>
<feBlend mode="normal" in2="shape" result="effect1_innerShadow_10_2438"/>
<feColorMatrix in="SourceAlpha" type="matrix" values="0 0 0 0 0 0 0 0 0 0 0 0 0 0 0 0 0 0 127 0" result="hardAlpha"/>
<feOffset dx="1" dy="1.5"/>
<feGaussianBlur stdDeviation="2"/>
<feComposite in2="hardAlpha" operator="arithmetic" k2="-1" k3="1"/>
<feColorMatrix type="matrix" values="0 0 0 0 0 0 0 0 0 0 0 0 0 0 0 0 0 0 0.08 0"/>
<feBlend mode="overlay" in2="effect1_innerShadow_10_2438" result="effect2_innerShadow_10_2438"/>
<feColorMatrix in="SourceAlpha" type="matrix" values="0 0 0 0 0 0 0 0 0 0 0 0 0 0 0 0 0 0 127 0" result="hardAlpha"/>
<feOffset dy="-0.5"/>
<feGaussianBlur stdDeviation="0.5"/>
<feComposite in2="hardAlpha" operator="arithmetic" k2="-1" k3="1"/>
<feColorMatrix type="matrix" values="0 0 0 0 1 0 0 0 0 1 0 0 0 0 1 0 0 0 0.25 0"/>
<feBlend mode="normal" in2="effect2_innerShadow_10_2438" result="effect3_innerShadow_10_2438"/>
<feColorMatrix in="SourceAlpha" type="matrix" values="0 0 0 0 0 0 0 0 0 0 0 0 0 0 0 0 0 0 127 0" result="hardAlpha"/>
<feOffset dy="-0.5"/>
<feGaussianBlur stdDeviation="0.5"/>
<feComposite in2="hardAlpha" operator="arithmetic" k2="-1" k3="1"/>
<feColorMatrix type="matrix" values="0 0 0 0 1 0 0 0 0 1 0 0 0 0 1 0 0 0 0.3 0"/>
<feBlend mode="overlay" in2="effect3_innerShadow_10_2438" result="effect4_innerShadow_10_2438"/>
</filter>
<filter id="filter1_d_10_2438" x="16" y="29" width="21" height="20" filterUnits="userSpaceOnUse" color-interpolation-filters="sRGB">
<feFlood flood-opacity="0" result="BackgroundImageFix"/>
<feColorMatrix in="SourceAlpha" type="matrix" values="0 0 0 0 0 0 0 0 0 0 0 0 0 0 0 0 0 0 127 0" result="hardAlpha"/>
<feOffset dx="5"/>
<feGaussianBlur stdDeviation="2"/>
<feComposite in2="hardAlpha" operator="out"/>
<feColorMatrix type="matrix" values="0 0 0 0 0 0 0 0 0 0 0 0 0 0 0 0 0 0 0.18 0"/>
<feBlend mode="normal" in2="BackgroundImageFix" result="effect1_dropShadow_10_2438"/>
<feBlend mode="normal" in="SourceGraphic" in2="effect1_dropShadow_10_2438" result="shape"/>
</filter>
<clipPath id="clip0_10_2438">
<rect x="16" y="33" width="288" height="12" rx="6" fill="white"/>
</clipPath>
</defs>
</svg>
