<svg width="28" height="28" viewBox="0 0 28 28" fill="none" xmlns="http://www.w3.org/2000/svg">
<path d="M7.68311 13.2764V11.6328C7.68311 11.417 7.76058 11.2344 7.91553 11.085C8.07048 10.9355 8.25309 10.8608 8.46338 10.8608C8.68473 10.8608 8.87288 10.9355 9.02783 11.085C9.18278 11.2344 9.26025 11.417 9.26025 11.6328V13.2183C9.26025 14.159 9.45671 14.9836 9.84961 15.6919C10.248 16.3947 10.8042 16.9398 11.5181 17.3271C12.2319 17.7145 13.0592 17.9082 14 17.9082C14.9463 17.9082 15.7736 17.7145 16.4819 17.3271C17.1903 16.9398 17.7437 16.3947 18.1421 15.6919C18.5405 14.9836 18.7397 14.159 18.7397 13.2183V11.6328C18.7397 11.417 18.8172 11.2344 18.9722 11.085C19.1271 10.9355 19.3125 10.8608 19.5283 10.8608C19.7441 10.8608 19.9268 10.9355 20.0762 11.085C20.2311 11.2344 20.3086 11.417 20.3086 11.6328V13.2764C20.3086 14.4163 20.0734 15.4235 19.603 16.2979C19.1326 17.1722 18.4797 17.8722 17.644 18.3979C16.814 18.9237 15.8538 19.2391 14.7637 19.3442V21.0459H17.8101C18.0259 21.0459 18.2113 21.1206 18.3662 21.27C18.5212 21.425 18.5986 21.6104 18.5986 21.8262C18.5986 22.0365 18.5212 22.2163 18.3662 22.3657C18.2113 22.5207 18.0259 22.5981 17.8101 22.5981H10.1899C9.97412 22.5981 9.78874 22.5207 9.63379 22.3657C9.47884 22.2163 9.40137 22.0365 9.40137 21.8262C9.40137 21.6104 9.47884 21.425 9.63379 21.27C9.78874 21.1206 9.97412 21.0459 10.1899 21.0459H13.2363V19.3442C12.1462 19.2391 11.1833 18.9237 10.3477 18.3979C9.51204 17.8722 8.85905 17.1722 8.38867 16.2979C7.91829 15.4235 7.68311 14.4163 7.68311 13.2764ZM14 16.1899C13.4411 16.1899 12.9403 16.0599 12.4976 15.7998C12.0604 15.5342 11.7145 15.1689 11.46 14.7041C11.2054 14.2393 11.0781 13.6997 11.0781 13.0854V7.49902C11.0781 6.88477 11.2054 6.34521 11.46 5.88037C11.7145 5.41553 12.0604 5.05306 12.4976 4.79297C12.9403 4.52734 13.4411 4.39453 14 4.39453C14.5589 4.39453 15.057 4.52734 15.4941 4.79297C15.9368 5.05306 16.2827 5.41553 16.5317 5.88037C16.7863 6.34521 16.9136 6.88477 16.9136 7.49902V13.0854C16.9136 13.6997 16.7863 14.2393 16.5317 14.7041C16.2827 15.1689 15.9368 15.5342 15.4941 15.7998C15.057 16.0599 14.5589 16.1899 14 16.1899Z" fill="white" fill-opacity="0.23" style="mix-blend-mode:lighten"/>
<path d="M7.68311 13.2764V11.6328C7.68311 11.417 7.76058 11.2344 7.91553 11.085C8.07048 10.9355 8.25309 10.8608 8.46338 10.8608C8.68473 10.8608 8.87288 10.9355 9.02783 11.085C9.18278 11.2344 9.26025 11.417 9.26025 11.6328V13.2183C9.26025 14.159 9.45671 14.9836 9.84961 15.6919C10.248 16.3947 10.8042 16.9398 11.5181 17.3271C12.2319 17.7145 13.0592 17.9082 14 17.9082C14.9463 17.9082 15.7736 17.7145 16.4819 17.3271C17.1903 16.9398 17.7437 16.3947 18.1421 15.6919C18.5405 14.9836 18.7397 14.159 18.7397 13.2183V11.6328C18.7397 11.417 18.8172 11.2344 18.9722 11.085C19.1271 10.9355 19.3125 10.8608 19.5283 10.8608C19.7441 10.8608 19.9268 10.9355 20.0762 11.085C20.2311 11.2344 20.3086 11.417 20.3086 11.6328V13.2764C20.3086 14.4163 20.0734 15.4235 19.603 16.2979C19.1326 17.1722 18.4797 17.8722 17.644 18.3979C16.814 18.9237 15.8538 19.2391 14.7637 19.3442V21.0459H17.8101C18.0259 21.0459 18.2113 21.1206 18.3662 21.27C18.5212 21.425 18.5986 21.6104 18.5986 21.8262C18.5986 22.0365 18.5212 22.2163 18.3662 22.3657C18.2113 22.5207 18.0259 22.5981 17.8101 22.5981H10.1899C9.97412 22.5981 9.78874 22.5207 9.63379 22.3657C9.47884 22.2163 9.40137 22.0365 9.40137 21.8262C9.40137 21.6104 9.47884 21.425 9.63379 21.27C9.78874 21.1206 9.97412 21.0459 10.1899 21.0459H13.2363V19.3442C12.1462 19.2391 11.1833 18.9237 10.3477 18.3979C9.51204 17.8722 8.85905 17.1722 8.38867 16.2979C7.91829 15.4235 7.68311 14.4163 7.68311 13.2764ZM14 16.1899C13.4411 16.1899 12.9403 16.0599 12.4976 15.7998C12.0604 15.5342 11.7145 15.1689 11.46 14.7041C11.2054 14.2393 11.0781 13.6997 11.0781 13.0854V7.49902C11.0781 6.88477 11.2054 6.34521 11.46 5.88037C11.7145 5.41553 12.0604 5.05306 12.4976 4.79297C12.9403 4.52734 13.4411 4.39453 14 4.39453C14.5589 4.39453 15.057 4.52734 15.4941 4.79297C15.9368 5.05306 16.2827 5.41553 16.5317 5.88037C16.7863 6.34521 16.9136 6.88477 16.9136 7.49902V13.0854C16.9136 13.6997 16.7863 14.2393 16.5317 14.7041C16.2827 15.1689 15.9368 15.5342 15.4941 15.7998C15.057 16.0599 14.5589 16.1899 14 16.1899Z" fill="#545454" style="mix-blend-mode:color-dodge"/>
</svg>
